<svg id="Layer_1" data-name="Layer 1" xmlns="http://www.w3.org/2000/svg" viewBox="0 0 61.64 89.19"><path d="M.05,56.19c0-7.5,0-14.3,0-22C0,27,2.79,20.35,8.7,16a26.05,26.05,0,0,1,6.44-3.16,4.31,4.31,0,0,0,3-2.94,14,14,0,0,1,13-9.65c4.26,0,10.55,3.86,12.29,9.53a4,4,0,0,0,3.18,3c9.06,2.23,14.9,11.53,15,20.14.09,15.67,0,31.33,0,47,0,5.74-3.52,9.36-9.28,9.38-14.33,0-28.67-.16-43,.1C1.92,89.44,0,84.62,0,79.94,0,72.17.05,64.1.05,56.19Zm3.88,0c0,8-.09,16,.07,24,0,1.52,0,3,1,4.21a2.91,2.91,0,0,0,2.4,1.28c1,.05,1.25-1.19,1.25-2.17,0-2.24,0-4.5.06-6.74.3-8,5.54-13.51,13.52-13.85,5.73-.25,11.5-.23,17.24,0,8,.32,13.2,5.75,13.4,13.79,0,2.17-.06,4.34,0,6.5,0,.73-.25,1.85,1.46,2.1,3.41.48,3.4-3.9,3.41-5.5.12-15.58.1-31.16.06-46.74,0-10.35-7.24-17.58-17.56-17.68-6.09-.06-12.17,0-18.25,0-11.31,0-18.12,6.92-18.13,18.32Q3.92,45,3.93,56.22ZM30.7,85.9c5.33,0,10.66-.05,16,0,2.11,0,3.09-.75,3-2.94-.11-1.83,0-3.66,0-5.5-.08-6.76-4.07-11-10.81-11.12-5.33-.13-10.67-.14-16,0-5.79.16-9.54,3.3-10.47,8.83a43.67,43.67,0,0,0-.23,7c0,3.6.12,3.73,3.84,3.74Zm0-73.81c2.33,0,4.65.05,7,0s2.89-.93,1.68-2.9a9.71,9.71,0,0,0-8.59-5.07c-3.78,0-6.58,2-8.49,5.24-1.06,1.77-.59,2.65,1.46,2.72C26.06,12.15,28.39,12.09,30.71,12.09Z" transform="translate(0 -0.25)"/><path d="M9.14,42.69c0-2.84,0-5.67,0-8.51C9.2,26.65,14.5,21,22.05,20.73c5.91-.2,11.84-.21,17.75,0,7.44.29,12.65,5.9,12.73,13.33,0,2.92.15,5.85-.08,8.75a2,2,0,0,1-.06.32,1.69,1.69,0,0,1-3.2,0,1.61,1.61,0,0,1-.07-.37c-.22-2.9-.06-5.83-.09-8.75-.06-5.47-3.86-9.6-9.29-9.75-5.91-.16-11.83-.15-17.74,0a9.51,9.51,0,0,0-9.3,9.36c-.09,6,0,11.93,0,17.9a4.93,4.93,0,0,1-.08,2,4.53,4.53,0,0,1-.34.55,1.74,1.74,0,0,1-2.86-.08,1.1,1.1,0,0,1-.16-.47c-.17-3.58-.07-7.17-.07-10.75Z" transform="translate(0 -0.25)"/><path d="M30.92,33.19a34,34,0,0,1,6.47.11A5.67,5.67,0,0,1,41,35.75c2.43,4.59-.09,8.65-5.14,8.67-3.75,0-7.49,0-11.24,0-2.82,0-4.09-1.31-4.28-4.11a14.53,14.53,0,0,1,.07-3.49c.4-2.18,1.6-3.63,4.05-3.61h6.49ZM31,36.64H25.78c-1.46,0-2.07.78-2,2.22s.53,2.26,2,2.27c3.4,0,6.8,0,10.2,0,1.46,0,2-.89,2-2.27s-.6-2.19-2-2.21C34.32,36.61,32.66,36.63,31,36.64Z" transform="translate(0 -0.25)"/><path d="M50.42,46.41a.51.51,0,0,1,1,0c1.31,3.33,2.83,9.37-.58,9.37S49.07,49.88,50.42,46.41Z" transform="translate(0 -0.25)"/></svg>