<?xml version="1.0" encoding="utf-8"?>
<!-- Generator: Adobe Illustrator 25.0.0, SVG Export Plug-In . SVG Version: 6.00 Build 0)  -->
<svg version="1.1" id="Layer_1" xmlns="http://www.w3.org/2000/svg" xmlns:xlink="http://www.w3.org/1999/xlink" x="0px" y="0px"
	 viewBox="0 0 78.23 100.98" style="enable-background:new 0 0 78.23 100.98;" xml:space="preserve">
<g>
	<g>
		<path d="M60.71,16.18h-0.65v7.31h1.05c2.83,0,5.12,2.29,5.12,5.12v57.93c0,2.83-2.29,5.12-5.12,5.12H17.23
			c-2.83,0-5.12-2.29-5.12-5.12V28.61c0-2.83,2.29-5.12,5.12-5.12h1.14v-7.31H18.2c-6.73,0-12.18,5.45-12.18,12.18v57.68
			c0,6.73,5.45,12.18,12.18,12.18h42.5c6.73,0,12.18-5.45,12.18-12.18V28.37C72.89,21.64,67.44,16.18,60.71,16.18z"/>
	</g>
</g>
<g>
	<g>
		<path d="M18.25,8v22.68h41.81V8H18.25z M54.38,25.29H23.96v-12h30.41V25.29z"/>
	</g>
</g>
<rect x="21.66" y="43.34" width="35.09" height="5.69"/>
<rect x="21.66" y="57.64" width="35.09" height="5.69"/>
<rect x="21.66" y="71.94" width="35.09" height="5.69"/>
</svg>
