<svg id="Layer_1" data-name="Layer 1" xmlns="http://www.w3.org/2000/svg" viewBox="0 0 63.55 45.01"><path d="M45.13,62.33c-.3,1.27-.51,2.32-.8,3.35A10.14,10.14,0,0,1,34.45,73a9.84,9.84,0,0,1-9.09-8.22c-.3-2.1-1.16-2.63-3.06-2.47C20,62.49,19,61.39,19,59c.08-7.41,0-14.83,0-22.24A8.58,8.58,0,0,1,27.75,28q17-.06,34,0a8.21,8.21,0,0,1,8.37,8.38c.09,5,.31,5.28,5.36,6.25a8.75,8.75,0,0,1,7,8c.14,3,0,6,0,9a2.33,2.33,0,0,1-2.63,2.61c-2.25,0-4.51-.1-6.74.11A2.62,2.62,0,0,0,71.34,64c-1.18,5.44-5,9-9.81,9s-8.79-3.58-9.74-9c-.23-1.27-.69-1.72-1.91-1.67C48.31,62.38,46.74,62.33,45.13,62.33Zm-4.8,0c-3.28,0-6.59.08-9.89.08-1.58,0-1,1.17-1,1.71a5.44,5.44,0,0,0,6.29,4.35C38.62,68.15,40.48,65.8,40.33,62.36ZM78.15,58V52.38c0-4-1.22-5.33-5.2-5.8a7.26,7.26,0,0,1-6.63-5.81,23.82,23.82,0,0,1-.35-4c-.13-2.87-1.48-4.29-4.34-4.29q-17,0-34,0c-2.73,0-4.08,1.4-4.09,4.19,0,5.58,0,11.17,0,16.75V58Zm-21.92,4.5a4.51,4.51,0,0,0,2.25,5.14,5.33,5.33,0,0,0,6.08,0,4.53,4.53,0,0,0,2.32-5.16Z" transform="translate(-19.04 -28)"/><path d="M40.15,38.18h6.46v4.59H40.15Z" transform="translate(-19.04 -28)"/><path d="M29.15,38.18h6.46v4.59H29.15Z" transform="translate(-19.04 -28)"/><path d="M51.15,38.18h6.46v4.59H51.15Z" transform="translate(-19.04 -28)"/></svg>