<svg id="Layer_1" data-name="Layer 1" xmlns="http://www.w3.org/2000/svg" viewBox="0 0 44.68 44.7"><path d="M35.54,55.48V58.7H29.92V55.48Z" transform="translate(-23 -22.51)"/><path d="M35.57,48.51V51.6H30V48.51Z" transform="translate(-23 -22.51)"/><path d="M38.65,22.51V40.44L23,34.61V67.22H67.67V22.51Zm0,40.23H27.45V40.92c3.58,1.37,7,2.65,10.35,4a1.76,1.76,0,0,1,.81,1.34C38.66,51.67,38.64,57.07,38.64,62.74Zm16.74-.23H50.93v-4.7h4.45Zm7.74.17H58.88V55H47.71v7.64H43.13V27h20Z" transform="translate(-23 -22.51)"/><path d="M49.23,29.51V32.6H46V29.51Z" transform="translate(-23 -22.51)"/><path d="M54.73,29.51V32.6H51.47V29.51Z" transform="translate(-23 -22.51)"/><path d="M60.16,29.51V32.6H56.9V29.51Z" transform="translate(-23 -22.51)"/><path d="M49.23,35.51V38.6H46V35.51Z" transform="translate(-23 -22.51)"/><path d="M54.73,35.51V38.6H51.47V35.51Z" transform="translate(-23 -22.51)"/><path d="M60.16,35.51V38.6H56.9V35.51Z" transform="translate(-23 -22.51)"/><path d="M49.23,41.51V44.6H46V41.51Z" transform="translate(-23 -22.51)"/><path d="M54.73,41.51V44.6H51.47V41.51Z" transform="translate(-23 -22.51)"/><path d="M60.16,41.51V44.6H56.9V41.51Z" transform="translate(-23 -22.51)"/></svg>