<svg id="Layer_1" data-name="Layer 1" xmlns="http://www.w3.org/2000/svg" viewBox="0 0 49.78 44.62"><path d="M48.71,33.13c0-1.64,0-3.31,0-4.88l3.44,0c0,2.42,0,4.88,0,4.88s2.55,0,4.45,0v3.34H54.77c-1.41,0-3.21,0-2.66,0,0,0,0,4.53,0,4.53s14.12,9.66,20.24,14.08c.88.63,1.72,1.3,3,2.24H68.88V72.87H32.48V57.58h-7L40.73,46.51c1.81-1.32,8-5.45,7.92-5.48s0-2.59,0-4.52c-1.07-.07-2.53,0-3.87,0,0-1.09,0-2.1,0-3.35C46,33.13,47.07,33.18,48.71,33.13Zm16,24.57H36.41V68.91h8.32V62.19H56.67v6.72h8ZM37.79,53.42h25.6L50.56,44.17ZM47.84,68.87h5.49V65.2H47.84Z" transform="translate(-25.51 -28.25)"/></svg>