<svg id="Layer_1" data-name="Layer 1" xmlns="http://www.w3.org/2000/svg" viewBox="0 0 60.59 44.73"><path d="M26.38,49.81c.59,4.49,1.12,8.58,1.68,12.88-1.8,0-3.74.09-5.76.09.27-2.56.84-5.24,1.14-7.83.16-1.38.44-2.74.62-4.11s-.43-2-1.76-3.17c-1.12-.7-2.43-2.19-2.41-3.31s.2-2.15,2.48-3.29c8.68-4.18,17.44-8.19,26.23-12.13a4.45,4.45,0,0,1,3.27,0c8.78,3.95,17.54,8,26.22,12.14,1.72.9,2.5,1.78,2.38,3.33,0,1.13-1.41,2.31-2.54,3a79,79,0,0,1-7.31,3.82A3.17,3.17,0,0,0,69,54.32c0,4.2-.11,7.91-.16,12-.06,4.57-2.58,7-7.17,7q-11.51,0-23,0c-4.42,0-7-2.54-7-6.93,0-3.67,0-7,.06-11,.08-2.92-.7-4.06-3.13-4.75C28,50.52,27.47,50.25,26.38,49.81Zm0-5.68,0,1a45.44,45.44,0,0,0,4.67,0c6.19-.66,12.37-1.45,18.56-2.09.53-.06,1.14.62,1.72,1-.42.48-.79,1.29-1.28,1.38-2.36.43-4.76.68-7.15,1-3.12.37-6.25.72-9.37,1.07a170.52,170.52,0,0,0,16,7.94,3,3,0,0,0,2.06-.3Q58.51,52,65.4,48.76c2.93-1.36,5.85-2.78,9.2-4.38-8.14-3.77-15.73-7.3-23.35-10.76a2.77,2.77,0,0,0-2.08,0C41.55,37.08,34,40.62,26.37,44.13Zm9.8,10.11c0,4.44-.09,8.51.09,12.57a2,2,0,0,0,1.93,1.93c8,.14,15.49.13,23.48,0,2.11,0,2.38-.72,2.47-2,.17-4.18.09-8,.09-12.5-4.21,1.93-8,3.82-11.9,5.38a6.18,6.18,0,0,1-4.2,0C44.22,58.1,40.44,56.21,36.17,54.24Z" transform="translate(-19.89 -28.63)"/></svg>