<?xml version="1.0" encoding="utf-8"?>
<!-- Generator: Adobe Illustrator 23.0.4, SVG Export Plug-In . SVG Version: 6.00 Build 0)  -->
<svg version="1.1" xmlns="http://www.w3.org/2000/svg" xmlns:xlink="http://www.w3.org/1999/xlink" x="0px" y="0px"
	 viewBox="0 0 174.8 174.8" style="enable-background:new 0 0 174.8 174.8;" xml:space="preserve">
<g id="Layer_1">
	<title>clock</title>
	<path d="M87.5,0C39.23,0,0.1,39.13,0.1,87.4s39.13,87.4,87.4,87.4s87.4-39.13,87.4-87.4S135.77,0,87.5,0C87.5,0,87.5,0,87.5,0z
		 M87.5,162.7c-41.59,0-75.3-33.71-75.3-75.3s33.71-75.3,75.3-75.3s75.3,33.71,75.3,75.3c0,0,0,0,0,0
		C162.74,128.96,129.06,162.64,87.5,162.7L87.5,162.7z"/>
</g>
<g id="Layer_2">
	<path d="M82.26,39.81l-6.06,50c-0.96,7.9,5.92,14.51,13.78,13.25l43.59-10.51c4.01-0.65,4-6.41,0-7.05l-40.93,0.46L89.7,39.64
		C88.98,35.36,82.78,35.5,82.26,39.81z"/>
</g>
</svg>
