<svg id="Layer_1" data-name="Layer 1" xmlns="http://www.w3.org/2000/svg" viewBox="0 0 147.1 150.1"><title>ci-calendar1</title><path d="M53.5,17.1H72.1c0-.6.1-1.1.1-1.6V5.5a3.2,3.2,0,1,1,6.4,0V17.1H97.3V14c0-2.8-.1-5.7,0-8.5S98.5,2,100.4,2a3.1,3.1,0,0,1,3.2,3.4c.1,3.4.1,6.7.1,10v1.9h7.9c3.2,0,6.3-.1,9.5,0,.9,0,1.2-.3,1.2-1.3V5.7c0-2.2,1.2-3.7,3.2-3.7s3.2,1.4,3.2,3.7V17.2h28.2c3.6,0,4.6.9,4.6,4.4V148.2c0,2.7-1.2,3.9-4,3.9H18.4c-2.9,0-4-1.1-4-4V21c0-2.5,1.2-3.8,3.7-3.8H47.2V10.5c0-1.8-.1-3.5-.1-5.3a3.2,3.2,0,1,1,6.4.1c.1,3.4,0,6.8,0,10.2ZM20.8,23.6v122H154.9V23.7H128.7v11c0,2.4-1.3,3.9-3.1,3.9s-3.3-1.5-3.3-3.9,0-6.6.1-10c0-.9-.3-1.3-1.2-1.3H107l-3.3.2V34.9c-.1,2.2-1.4,3.7-3.2,3.7s-3.2-1.5-3.2-3.7-.1-6.6,0-9.9c0-1.2-.4-1.5-1.5-1.5H78.6V35.1a3.2,3.2,0,0,1-3.2,3.5,3.3,3.3,0,0,1-3.2-3.5V23.7H53.5V34.6a6.5,6.5,0,0,1,0,1.4,3.5,3.5,0,0,1-3.2,2.6,3,3,0,0,1-3.1-3c-.1-3.4-.1-6.9-.1-10.3V23.6Z" transform="translate(-14.4 -2)"/><path d="M101.9,99.1h7.2c2.1.1,3.5,1.3,3.6,3.2a3.3,3.3,0,0,1-3.6,3.3H94.7c-2.3,0-3.7-1.4-3.7-3.3s1.5-3.2,3.7-3.2Z" transform="translate(-14.4 -2)"/><path d="M74.1,99.1h7.1c2.2,0,3.6,1.4,3.6,3.2a3.2,3.2,0,0,1-3.5,3.3H66.7a3.4,3.4,0,0,1-3.6-3.3,3.5,3.5,0,0,1,3.7-3.2Z" transform="translate(-14.4 -2)"/><path d="M101.9,59.3h7.2c2.2,0,3.6,1.3,3.6,3.3a3.2,3.2,0,0,1-3.5,3.1H94.7c-2.3,0-3.7-1.2-3.7-3.2s1.4-3.2,3.8-3.2Z" transform="translate(-14.4 -2)"/><path d="M129.8,59.3h7.1c2.1,0,3.6,1.3,3.6,3.2s-1.4,3.2-3.6,3.2H122.4c-2.2,0-3.6-1.2-3.6-3.2s1.4-3.2,3.6-3.2Z" transform="translate(-14.4 -2)"/><path d="M46.3,99.1h7.1c2.2,0,3.6,1.3,3.6,3.2s-1.3,3.3-3.5,3.3H39.2a5.8,5.8,0,0,1-2.5-.9,2.9,2.9,0,0,1-1.2-3.4,3.4,3.4,0,0,1,3.2-2.2Z" transform="translate(-14.4 -2)"/><path d="M129.7,105.6h-7.3a3.5,3.5,0,0,1-3.6-3.3c0-1.8,1.5-3.1,3.6-3.1h14.5c2.5,0,4.1,1.9,3.4,4.2a3.1,3.1,0,0,1-3.3,2.3Z" transform="translate(-14.4 -2)"/><path d="M129.6,85.6c-2.5,0-4.9.1-7.3,0s-3.5-1.3-3.5-3.1a3.3,3.3,0,0,1,3.4-3.3h14.9a3.4,3.4,0,0,1,3.4,3.3,3.2,3.2,0,0,1-3.5,3.1C134.5,85.7,132.1,85.6,129.6,85.6Z" transform="translate(-14.4 -2)"/><path d="M46.2,85.7H38.9c-2.1,0-3.6-1.3-3.6-3.2s1.5-3.1,3.6-3.1H53.6A3.2,3.2,0,0,1,57,82.5a3,3,0,0,1-3.3,3.1c-2.5.1-5,0-7.5,0Z" transform="translate(-14.4 -2)"/><path d="M74,79.2h7.3c2.2.1,3.5,1.3,3.5,3.2s-1.3,3.2-3.4,3.2q-7.4.2-14.7,0c-2.1,0-3.5-1.3-3.5-3.1a3.2,3.2,0,0,1,3.4-3.2H74Z" transform="translate(-14.4 -2)"/><path d="M101.8,85.7H94.5c-2.1,0-3.5-1.3-3.5-3.1a3.2,3.2,0,0,1,3.4-3.3h14.8a3.1,3.1,0,0,1,3.4,3.1c0,2-1.3,3.2-3.5,3.2Z" transform="translate(-14.4 -2)"/><path d="M46.2,125.5H38.5c-2.6-.1-4.1-2.7-2.6-4.8a4.3,4.3,0,0,1,2.7-1.5H53.9a3,3,0,0,1,3.1,3.2,3.2,3.2,0,0,1-3.2,3.2Z" transform="translate(-14.4 -2)"/><path d="M74,125.5H66.6a3.3,3.3,0,0,1-3.4-3.2,3,3,0,0,1,3.2-3.2H81.7a3,3,0,0,1,3.1,3.2,3.1,3.1,0,0,1-3.1,3.2Z" transform="translate(-14.4 -2)"/></svg>