<svg id="Layer_1" data-name="Layer 1" xmlns="http://www.w3.org/2000/svg" viewBox="0 0 98.11 99.31"><path d="M25.79,68.27H3c0-.32,0-.6,0-.89,0-7.52,0-15,0-22.55a1.22,1.22,0,0,1,.8-1.28c1-.46,1.92-1,2.9-1.49a1,1,0,0,0,.6-1c0-2.78,0-5.55,0-8.32a1.08,1.08,0,0,1,.67-1.18c1.73-.77,2.38-1.93,2.47-4,.32-7.2,3.25-13.21,9.2-17.52,8.65-6.26,21-5.92,28.93.78a20.88,20.88,0,0,1,7.34,13.8,87.54,87.54,0,0,1,.42,10.5c.05,15,0,30,0,44.94,0,5.94,2.31,10.73,7.75,13.5a14.78,14.78,0,0,0,15.84-.92c4-2.75,5.65-6.88,5.88-11.62.1-2.14.1-4.3.11-6.45a1.24,1.24,0,0,0-.44-.83c-.92-.78-2.23-1.33-2.72-2.3s-.14-2.31-.14-3.49c0-1.71,0-3.42,0-5.13A1.08,1.08,0,0,0,82,61.7c-1.11-.6-2.2-1.25-3.28-1.92a1.08,1.08,0,0,1-.47-.72c0-7.91,0-15.81,0-23.78H101c0,.26,0,.54,0,.82,0,7.55,0,15.1,0,22.65a1.14,1.14,0,0,1-.74,1.21c-1,.46-1.92,1-2.9,1.5a1,1,0,0,0-.66,1.08c0,2.77,0,5.54,0,8.32,0,.53-.1.92-.61,1.12-2,.76-2.5,2.23-2.43,4.29a39.49,39.49,0,0,1-1,11.4,20.83,20.83,0,0,1-18.25,15.66c-7.1.73-13.55-.85-19-5.53A20.18,20.18,0,0,1,48.19,82c-.13-16.9-.08-33.79-.1-50.69a23.27,23.27,0,0,0-1.18-8.44,14.76,14.76,0,0,0-14.32-9.41c-4.61.32-8.14,2.73-10.88,6.34a14.67,14.67,0,0,0-3.14,9.28,1.11,1.11,0,0,0,.58,1.17c2,1,2.61,2.54,2.36,4.73-.21,1.83,0,3.71-.06,5.57A1.36,1.36,0,0,0,22.3,42c1.05.54,2.06,1.15,3.05,1.79a1.13,1.13,0,0,1,.48.81q0,11.67,0,23.35A2.11,2.11,0,0,1,25.79,68.27Z" transform="translate(-2.98 -4.19)"/><path d="M23.48,82.66H18.13V96.34c0,1.62-.56,2.41-2,2.84-1.65.49-3.6,0-4.24-1.14a3.25,3.25,0,0,1-.33-1.52c0-4.24,0-8.49,0-12.73V82.68H6.26v-9.9H23.48Z" transform="translate(-2.98 -4.19)"/><path d="M97.83,20.84v9.89H80.57V20.91H86V19.78c0-4.18,0-8.36,0-12.55,0-1.67.55-2.44,2-2.87s3.53,0,4.16,1.13a3.32,3.32,0,0,1,.34,1.6c0,4.21,0,8.43,0,12.64v1.11Z" transform="translate(-2.98 -4.19)"/></svg>