<svg id="Layer_1" data-name="Layer 1" xmlns="http://www.w3.org/2000/svg" viewBox="0 0 47.76 38.46"><path d="M23.07,45.27V25.55L49.8,23.43c0,.47.07.79.07,1.1,0,4.95,0,9.89,0,14.83,0,1.15-.38,1.63-1.36,1.77-2.08.3-4.15.65-6.23,1-.91.15-1.33-.34-1.33-1.55q0-5.09,0-10.17V28.89l-8,.62v1.37c0,3.76,0,7.52,0,11.27,0,1.12-.39,1.6-1.39,1.74C28.76,44.3,25.94,44.8,23.07,45.27Z" transform="translate(-2.12 -6.81)"/><path d="M2.2,24.47l18.73,1.09V45.17c-1.67-.37-3.34-.72-5-1.11-4.13-1-8.25-2-12.39-2.88-1-.22-1.43-.66-1.41-1.86.05-4.57,0-9.15,0-13.72C2.15,25.28,2.18,25,2.2,24.47Z" transform="translate(-2.12 -6.81)"/><path d="M48.73,21.24l-25,2C25.37,18,25.78,12.53,26.06,6.81,31.7,15.42,39.7,19,48.73,21.24Z" transform="translate(-2.12 -6.81)"/><path d="M24,6.82c-.19,5.48-.6,10.56-2.15,15.46-.19.58-.36,1.06-1.13,1-5.76-.37-11.52-.69-17.58-1C11.12,18.7,18.44,14.57,24,6.82Z" transform="translate(-2.12 -6.81)"/></svg>