<?xml version="1.0" encoding="utf-8"?>
<!-- Generator: Adobe Illustrator 23.0.4, SVG Export Plug-In . SVG Version: 6.00 Build 0)  -->
<svg version="1.1" baseProfile="tiny" id="Layer_1" xmlns="http://www.w3.org/2000/svg" xmlns:xlink="http://www.w3.org/1999/xlink"
	 x="0px" y="0px" viewBox="0 0 194.3 178.75" xml:space="preserve">
<g>
	<path d="M154.85,88.62c0.01,0.45,0.03,0.9,0.03,1.35c0,36.01-29.19,65.2-65.2,65.2c-36.01,0-65.2-29.19-65.2-65.2
		c0-36.01,29.19-65.2,65.2-65.2c17.62,0,33.59,7,45.32,18.35l14.7-13.31C134.34,14.48,113.12,4.99,89.68,4.99
		C42.75,4.99,4.7,43.04,4.7,89.98c0,46.94,38.05,84.98,84.98,84.98c46.94,0,84.98-38.05,84.98-84.98c0-6.18-0.68-12.2-1.93-18.01
		L154.85,88.62z"/>
</g>
<polygon points="64.65,53.98 98.86,88.98 174.51,20.41 192.44,40.47 97.05,128.38 44.42,73.91 "/>
</svg>
