<?xml version="1.0" encoding="utf-8"?>
<!-- Generator: Adobe Illustrator 25.0.0, SVG Export Plug-In . SVG Version: 6.00 Build 0)  -->
<svg version="1.1" id="Layer_1" xmlns="http://www.w3.org/2000/svg" xmlns:xlink="http://www.w3.org/1999/xlink" x="0px" y="0px"
	 viewBox="0 0 96 92.5" style="enable-background:new 0 0 96 92.5;" xml:space="preserve">
<g>
	<path d="M38.2,2.3l57,80.7c1.7,2.4,1.1,5.7-1.3,7.4l-1.5,1.1c-2.4,1.7-5.7,1.1-7.4-1.3L28,9.4c-1.7-2.4-1.1-5.7,1.3-7.4L30.8,1
		C33.2-0.7,36.5-0.1,38.2,2.3z"/>
	<path d="M68.2,9.4l-57,80.7c-1.7,2.4-5,3-7.4,1.3l-1.5-1.1c-2.4-1.7-3-5-1.3-7.4L58,2.2c1.7-2.4,5-3,7.4-1.3L66.9,2
		C69.3,3.7,69.9,7,68.2,9.4z"/>
	<polygon points="48.6,58.3 30.3,89.5 66.8,89.5 	"/>
</g>
</svg>
