<svg xmlns="http://www.w3.org/2000/svg" viewBox="0 0 241.09 480.03"><g id="Layer_2" data-name="Layer 2"><g id="Layer_1-2" data-name="Layer 1"><path d="M209.53,21.24a89.11,89.11,0,0,0-74-19.75l-9.14,1.68A154.35,154.35,0,0,0,5,194.16l9.19-2.41L59.8,365.33,44.32,369.4l10.91,41.53,16-4.2-9.71,2.55a93.84,93.84,0,0,0,56.27,63.82,93.87,93.87,0,0,0,84.8-7.12,68,68,0,0,0,32.61-57l5.87-317.94A89.08,89.08,0,0,0,209.53,21.24ZM198.2,408.32a31.15,31.15,0,0,1-14.94,26.11,57.7,57.7,0,0,1-86-34.55l6.29-1.65L92.68,356.7,68.5,363.05l8.71-2.29L31.63,187.18l-8.71,2.28,17.9-4.7a117.34,117.34,0,0,1,92.24-145.2l9.14-1.68a52.4,52.4,0,0,1,61.88,52.5Z"/></g></g></svg>