<?xml version="1.0" encoding="utf-8"?>
<!-- Generator: Adobe Illustrator 25.2.0, SVG Export Plug-In . SVG Version: 6.00 Build 0)  -->
<svg version="1.1" xmlns="http://www.w3.org/2000/svg" xmlns:xlink="http://www.w3.org/1999/xlink" x="0px" y="0px"
	 viewBox="0 0 200.94 212" style="enable-background:new 0 0 200.94 212;" xml:space="preserve">
<g id="Layer_1">
</g>
<g id="Layer_2">
	<path d="M3.02,202.32c0.02-5.64-0.23-11.29,0.22-16.9c0.17-2.12,1.5-5.17,3.13-5.87c1.61-0.69,4.82,0.45,6.35,1.85
		c7.29,6.66,15.2,11.72,25.41,12.14c11.09,0.46,19.65-4.9,27.45-11.99c1.69-1.54,3.34-3.13,4.97-4.66
		c26.91,22.98,38.51,22.95,61.96-0.23c1.23,1.17,2.49,2.36,3.74,3.56c16.16,15.61,36.06,16.16,53.19,1.74
		c1.87-1.58,5.04-2.89,7.27-2.48c3.65,0.67,3.2,4.42,3.2,7.42c0,5.14,0.04,10.28,0.07,15.41C134.32,202.32,68.67,202.32,3.02,202.32
		z"/>
	<path d="M22.08,138.25c2.11-61.9,31.37-106.2,87.42-132.04c12.82-5.91,28.63-6.42,40.82,0.7c1.93,1.13,4.69,4.02,4.63,6.06
		c-0.08,2.86-1.94,6.08-3.95,8.35c-1.63,1.84-4.59,2.48-6.96,3.66c-41.19,20.55-65,53.59-71.48,99.2
		c-0.59,4.14-1.85,8.62-3.44,11.99c-5.31,11.27-14.05,16.55-25.17,19.48c-7.83,2.06-14.31-0.95-20.24-5.58
		c-0.96-0.75-1.43-2.52-1.55-3.88C21.91,143.57,22.08,140.9,22.08,138.25z"/>
	<path d="M118.54,96.43c-5.31,4.62-10.26,8.99-15.28,13.28c-4.07,3.48-7.61,3.59-10.49,0.48c-2.88-3.1-2.44-6.7,1.45-10.37
		c6.51-6.13,13.05-12.23,19.66-18.24c4.05-3.68,7.08-3.78,11.5-0.52c5.18,3.82,10.28,7.74,16,12.07c1.97-5.88,3.78-11.29,5.52-16.48
		c-0.44-0.6-0.58-1.02-0.83-1.1c-12.86-4.24-18.2-15.62-24.63-25.96c-1.71-2.75-1.73-6.01,1.18-7.32c2-0.9,6.23-0.61,7.33,0.81
		c8.77,11.28,20.04,18.12,33.66,22.15c7.37,2.18,10.44,10.51,7.3,17.57c-3.97,8.9-8.26,17.69-12.91,26.26
		c-4.18,7.7-13.51,9.08-20.43,3.47c-3.22-2.6-6.32-5.34-9.48-8.02C125.05,101.95,122.02,99.38,118.54,96.43z"/>
	<path d="M131.81,150.41c6.07,4.09,11.33,8.48,17.3,11.49c11.54,5.82,23.09,4.75,33.97-2.21c2.77-1.78,5.27-3.99,7.84-6.07
		c2.53-2.04,5.14-2.56,7.5-0.04c2.34,2.5,1.9,5.19-0.5,7.45c-8.65,8.17-18.45,13.91-30.69,14.63c-9.93,0.58-18.98-2.09-27.45-7.07
		c-2.27-1.34-4.47-2.79-6.64-4.16c-24.83,17.32-37.28,17.33-62.59-0.15c-1.56,1.15-3.23,2.42-4.94,3.64
		c-19.56,14.01-43.85,11.42-60.15-6.35c-2.44-2.66-3.59-5.41-0.65-8.21c2.74-2.6,5.23-1.28,7.86,0.83
		c4.24,3.39,8.48,6.99,13.28,9.39c10.85,5.43,21.6,3.98,31.53-2.65c4.64-3.1,8.78-6.96,13.49-10.74
		c8.51,8.73,18.07,16.22,31.2,16.71C115.69,167.4,124.29,158.78,131.81,150.41z"/>
	<path d="M169.2,63.03c-6.93-0.05-12.17-5.37-12.17-12.36c0-6.94,5.32-12.39,12.16-12.45c6.93-0.06,12.75,5.8,12.58,12.68
		C181.6,57.74,176.06,63.08,169.2,63.03z"/>
	<path d="M117.8,101.65c4.2,3.53,7.54,6.16,10.61,9.06c0.64,0.6,0.75,2.48,0.31,3.39c-2.93,6.09-6,12.11-9.19,18.07
		c-1.71,3.2-4.94,4.73-7.87,2.82c-2.02-1.31-4.33-5.11-3.77-6.96C110.54,119.44,114.14,111.13,117.8,101.65z"/>
</g>
</svg>
