<svg id="Layer_1" data-name="Layer 1" xmlns="http://www.w3.org/2000/svg" viewBox="0 0 46.34 45.32"><path d="M27.43,67.74V52.88c5.4,1.12,11-2.94,16.42-1.07a20,20,0,0,1,4.58,2.46C50.77,55.6,53,56,56.16,56.42c5.32.67,6.8.23,9.87-1.82,3.73-2.24,6.26-2.21,7.55.83a5.41,5.41,0,0,1-.5,4c-2.41,3.77-4.1,7-6.88,10.45a7.84,7.84,0,0,1-4.26,2.52c-6.44,1.3-13.16,1.46-17.2-.82-4-3.35-8.53-4.23-13.51-3.84C30,67.82,28.77,67.74,27.43,67.74Zm14.06-5.41c.52-.88.87-1.36,1.31-2.12a53,53,0,0,1,9.09,2.64c3.39,1,4.3.76,6.34,0,1.49-.52,1.6-1.24,1.62-1.37.1-1.2-1.29-2.11-3.28-2.44-3.18-.22-7.13-.33-10.86-2.57-5.39-3.4-9.31-1.7-14.27-.09,0,2.33,0,5.12,0,7.65,5.1-.35,9.66.73,15.08,4C50.1,69.78,54,69.7,58.4,69.28c.62,0,4.51-.7,5.92-2.32a39.81,39.81,0,0,0,6-8.85c-.06-.09.62-1-.17-1.77C68.68,55,66,58.19,64.87,59.27S63.1,60.54,63,62c-.16,2.11-1.69,3.57-4.43,4.15-3.6.66-5.16.38-8.54-.23C47,65.42,44.15,64.91,41.49,62.33Z" transform="translate(-27.43 -28.01)"/><path d="M55.77,31.55c1.75-1.1,3.24-2.39,5-3a7.94,7.94,0,0,1,9.06,2.8c2.08,3,2.29,7.06-.15,9.72-4.32,4.69-9,9.06-13.47,13.54-4.74-4.64-9.59-9-13.89-13.76-2.85-3.19-2-7.9,1.15-10.76a8,8,0,0,1,10.87.13C54.86,30.68,55.39,31.19,55.77,31.55ZM56,38c-1.81-2-3-3.62-4.5-5a4,4,0,0,0-5.62.07,4.18,4.18,0,0,0-.4,5.65c3.35,3.56,6.88,6.94,10.4,10.45,3.65-3.59,7.22-6.95,10.59-10.49a4.1,4.1,0,0,0-.39-5.64,4,4,0,0,0-5.63,0C59,34.4,57.8,36,56,38Z" transform="translate(-27.43 -28.01)"/></svg>