<svg id="Layer_1" data-name="Layer 1" xmlns="http://www.w3.org/2000/svg" viewBox="0 0 46.82 39.47"><path d="M1.41,43.14a4,4,0,0,1,2.93-1.53c1.29-.2,2.6-.3,3.9-.39a1.45,1.45,0,0,0,1.58-1.59c0-.22,0-.43,0-.64-.06-1-.15-1.16-1.11-1.5l-.43-.17a1.54,1.54,0,0,1-1-1.3c-.22-1.63-.52-3.24-.78-4.86,0-.15,0-.3,0-.54,1-.18,1.93-.39,2.9-.53a21.33,21.33,0,0,1,5.05-.19,11.15,11.15,0,0,1,4.91,1.52c1.95,1.19,3.93,2.31,5.93,3.41a20.94,20.94,0,0,0,10.27,2.4A48.14,48.14,0,0,0,46,36l.55-.11.14,1.26-.41.19.11.2c.54.86,1.12,1.69,1.58,2.59A2.46,2.46,0,0,1,48,42.19a1.82,1.82,0,0,1-1.51,1.28c-2.67.34-5.33.75-8,1s-5.37.51-8.06.6c-3.58.12-7.18.14-10.77.08-2.57,0-5.15-.16-7.7-.42-3.45-.36-6.87-.88-10.31-1.32l-.27,0ZM13.56,38c0,.18,0,.3,0,.42a1.28,1.28,0,0,0,0,.27,3.68,3.68,0,0,0,2.4,2.6,11.89,11.89,0,0,0,4.44.9c2.85.06,5.69,0,8.54,0a5.51,5.51,0,0,0,1.89-.46,2.24,2.24,0,0,0,1.47-2c0-.28-.07-.39-.35-.4s-.63,0-.95-.08a18.09,18.09,0,0,1-5.88-1.85c-1.84-.91-3.67-1.84-5.53-2.69a9.34,9.34,0,0,0-3.2-.78L16,37.81Zm22.23,1.33a3.35,3.35,0,0,0,2,2,9.82,9.82,0,0,0,6.53.21,1.08,1.08,0,0,0,.72-1.74,9.61,9.61,0,0,0-1.2-1.59.74.74,0,0,0-.58-.16c-.95.17-1.88.41-2.82.56C38.94,38.91,37.39,39.11,35.79,39.35Z" transform="translate(-1.41 -5.74)"/><path d="M6.29,29c0-1.31,0-2.55,0-3.8a18.58,18.58,0,0,1,1.41-6.09A18.88,18.88,0,0,0,9,10.71c0-.71-.18-1.41-.29-2.19L10.41,8a60.3,60.3,0,0,1,8.93-2,16.11,16.11,0,0,1,5.54,0,5.61,5.61,0,0,1,1.76.71,2.13,2.13,0,0,1,1,2.26c-.06.44-.08.88-.13,1.37H23.86a.79.79,0,1,0,0,1.58h3.62v1.7c-1,.1-2.12.2-3.19.28-.6,0-1,.36-.93.84s.41.8,1,.75l3.33-.26.34,1.63-2.45.52c-.24.05-.48.09-.71.16a.78.78,0,0,0-.54,1,.81.81,0,0,0,1,.57l3.2-.68.65,1.43-2.75,1.52a.81.81,0,0,0-.49.89.79.79,0,0,0,1.23.53c.82-.43,1.63-.89,2.44-1.34L30,21.2l1.51,1.67L30,24.09c-.63.47-.78.93-.45,1.36s.77.41,1.43-.09,1.31-1,2-1.5a.38.38,0,0,1,.52,0,82.36,82.36,0,0,0,11.2,5.59,2.75,2.75,0,0,1,1,.75A5.65,5.65,0,0,1,47,33.55a.64.64,0,0,1-.54.77A31.44,31.44,0,0,1,34.9,35.8a26,26,0,0,1-14.72-5.62,8.94,8.94,0,0,0-4.1-1.66,24,24,0,0,0-9.28.39Z" transform="translate(-1.41 -5.74)"/></svg>