<svg xmlns="http://www.w3.org/2000/svg" viewBox="0 0 98.43 98.43"><g id="Layer_2" data-name="Layer 2"><g id="Layer_1-2" data-name="Layer 1"><path d="M45.4,30.13a6.91,6.91,0,0,0,2.17,1.46,6.81,6.81,0,0,0,2.72.54,6.42,6.42,0,0,0,2.61-.54A6.84,6.84,0,0,0,56.52,28a6.72,6.72,0,0,0,.54-2.68,6.64,6.64,0,0,0-.54-2.67A6.9,6.9,0,0,0,52.9,19a6.42,6.42,0,0,0-2.61-.54,6.81,6.81,0,0,0-2.72.54,6.94,6.94,0,0,0-2.17,1.47A6.44,6.44,0,0,0,44,22.61a6.8,6.8,0,0,0-.52,2.67A6.88,6.88,0,0,0,44,28,6.44,6.44,0,0,0,45.4,30.13ZM49.22,0A49.22,49.22,0,1,0,98.43,49.22,49.28,49.28,0,0,0,49.22,0Zm0,90.43A41.22,41.22,0,1,1,90.43,49.22,41.26,41.26,0,0,1,49.22,90.43Zm6.72-52.3H38.05V48.68h6V67.45h-6V78H61.48V67.45H55.94Z"/></g></g></svg>