<svg id="Layer_1" data-name="Layer 1" xmlns="http://www.w3.org/2000/svg" viewBox="0 0 36.1 43.42"><path d="M21.13,15.56c3.61.86,6.54,1.42,9.88,2.23a8.66,8.66,0,0,1,1.4.42,3,3,0,0,1,1.67,4.43A31.69,31.69,0,0,1,31,26.84c-1.32,1.66-2.72,3.25-4.11,4.9,1.51,2.29,3,4.54,4.45,6.77a2.22,2.22,0,0,1,.3,2.53,2.38,2.38,0,0,1-2.24,1.08c-1.71,0-3.43.05-5.13,0-.44,0-1.07,0-1.28-.66,0-.49.48-.7.83-.9.95-.56,1.9-1.17,3-1.68-1-1.55-2-3.09-3-4.62-.28-.44-.59-.87-.84-1.32a2.4,2.4,0,0,1,.3-3.07c1.1-1.3,2.22-2.59,3.41-4a41.82,41.82,0,0,1-4.72-.56,15.3,15.3,0,0,1-4.07-1.5c-2.24-1.27-2.5-3.47-2.18-5.76a5.9,5.9,0,0,1,1.83-3.54c3.09-3,6.1-6,9.17-9a18.4,18.4,0,0,1,2.37-1.94,2,2,0,0,1,1.29-.21,1.64,1.64,0,0,1,1.1.61c.12.23-.16.76-.37,1.1s-.52.68-.32,1.22c0,.09-.26.54-.49.62-.8.27-1.45-.09-2.08.38-1.63,1.22-3.23,3.69-4.43,5.11C22.89,13.38,22,14.34,21.13,15.56Z" transform="translate(-7.81 -3.28)"/><path d="M33.44,43.33h8.48c1.27,0,2,.58,2,1.62s-.69,1.74-2,1.74H25c-1.35,0-2-.57-2-1.68s.67-1.69,2-1.7h8.47Z" transform="translate(-7.81 -3.28)"/><path d="M10.61,15c2.87.05,4.66,2.14,4.34,4.44a2.08,2.08,0,0,1-1.74,2,4.68,4.68,0,0,1-4.82-1.73,2.85,2.85,0,0,1-.27-3A3.08,3.08,0,0,1,10.61,15Z" transform="translate(-7.81 -3.28)"/></svg>