<svg id="Layer_1" data-name="Layer 1" xmlns="http://www.w3.org/2000/svg" viewBox="0 0 45.21 45.01"><g id="xTEipM"><path d="M32,33.62c-4.77,4-8.24,7.21-13.12,10.19A27.66,27.66,0,0,1,9.94,48c-2.08.54-4.16.82-5.7-.76S3,43.69,3.49,41.72c1.41-5.45,4.57-9.92,7.94-14.24,2.1-2.69,4.27-5.09,6.9-8.2-1.5-1.37-2.72-2.75-4.27-4.11C13.81,15,12.85,13.9,12.6,14c-2.82.83-6.38-3.07-8.37-5.21C2.77,7.18,3,5.89,4.4,4.51S7,3,8.5,4.36c2.24,2.14,5.68,6.17,5.68,8.28,0,.11,5.23,5.52,5.23,5.52A106.46,106.46,0,0,1,31.19,8.53a31.21,31.21,0,0,1,9.74-4.72c2.38-.59,4.61-.48,6,.92s1.19,3.64.72,5.63c-1.62,6.91-5.76,11.53-9.95,16.69-1.42,1.74-2.71,3.08-4.63,5.27,1.43,1.43,2.72,2.73,4.17,4.25.23.24.87.81,1.12.75,3.28-.83,6.89,3.7,8.92,5.81,1.19,1.23,1.37,2.57.25,3.77S45.12,49.06,43.69,48c-2.59-1.91-7.36-6.75-6.53-9.24A55.18,55.18,0,0,0,32,33.62ZM20,21.25c-1.24,1.26-2.35,2.26-3.32,3.4C12.39,29.72,8.11,34.85,6,41.3c-.41,1.27-1,3.1,0,4.3s3,.43,4.24,0c7.91-2.82,14-8.11,19.94-13.84-.72-.8-1.33-1.27-1.91-1.82-5.07,4.34-5.48,4.35-8.29,1.51S17.46,28,21.77,23.09C21.21,22.55,20.66,21.87,20,21.25Zm11.31,9.33a67.35,67.35,0,0,0,13-17.3,14,14,0,0,0,1.54-4.74c.24-2-.94-2.91-2.78-2.91a10.8,10.8,0,0,0-3.57.87C31.72,10,27.09,14.21,21.19,19.94c.67.75,1.16,1.21,1.87,2,2.07-2.16,3.83-3.87,5.77-5.8,2.25-2.25,4.08-2.18,6.43.15s2.46,4.19.24,6.43c-1.93,1.95-3.92,3.83-6.1,5.94ZM32.77,23c.79-1.22,2.19-2.47,2.2-3.72a3.81,3.81,0,0,0-2.73-2.69c-1.24,0-2.47,1.42-3.65,2.2Z" transform="translate(-3.11 -3.42)"/><path d="M42.66,8.87c-1.55,1.63-3.11,3.37-4.85,5.2a.72.72,0,0,1-.61-.61A55.84,55.84,0,0,1,42.11,8.3Z" transform="translate(-3.11 -3.42)"/><path d="M17.68,34.09c-2.49,2.55-5.06,5.37-7.85,8.23-.34-.27-.61-.45-.61-.88a87.1,87.1,0,0,1,7.86-8.07C17.37,33.67,17.39,33.78,17.68,34.09Z" transform="translate(-3.11 -3.42)"/></g></svg>