<svg id="Layer_1" data-name="Layer 1" xmlns="http://www.w3.org/2000/svg" viewBox="0 0 33.02 44.32"><path d="M66.57,28.67v2.66H33.8V28.67Z" transform="translate(-33.67 -28.67)"/><path d="M66.65,34.73h-33c0,9.68,0,19.08.06,28.48a2.93,2.93,0,0,0,1.35,2c4.39,2.51,8.87,4.85,13.28,7.34a3.18,3.18,0,0,0,3.12,0c4.52-2.47,9.06-4.89,13.67-7.21a2.79,2.79,0,0,0,1.54-2.52C66.61,54.48,66.71,35.49,66.65,34.73Zm-18.1,7.33,1.72-3.49L52,42.06l3.85.56-2.79,2.71.66,3.82-3.44-1.8-3.43,1.8.65-3.82-2.78-2.71Zm12,20.26a.46.46,0,0,1-.28.42L50.56,67a1.34,1.34,0,0,1-1.09,0l-8.74-4a.48.48,0,0,1-.27-.43V59.79a.47.47,0,0,1,.66-.43l8.76,3.92a.5.5,0,0,0,.38,0l9.59-4.09a.47.47,0,0,1,.65.43Zm.11-7.67a.48.48,0,0,1-.28.43l-9.66,4.24a1.34,1.34,0,0,1-1.09,0l-8.74-4a.48.48,0,0,1-.27-.42V52.12a.47.47,0,0,1,.66-.43L50,55.61a.5.5,0,0,0,.38,0L60,51.53a.46.46,0,0,1,.65.43Z" transform="translate(-33.67 -28.67)"/></svg>