<svg xmlns="http://www.w3.org/2000/svg" viewBox="0 0 192.71 235.81"><g id="Layer_2" data-name="Layer 2"><g id="Layer_1-2" data-name="Layer 1"><path d="M163.25,0H29.46A29.49,29.49,0,0,0,0,29.46V206.35a29.49,29.49,0,0,0,29.46,29.46H163.25a29.5,29.5,0,0,0,29.46-29.46V29.46A29.49,29.49,0,0,0,163.25,0ZM29.46,15H163.25a14.48,14.48,0,0,1,14.46,14.46V173.87H15V29.46A14.48,14.48,0,0,1,29.46,15ZM163.25,220.81H29.46A14.48,14.48,0,0,1,15,206.35v-5.44H177.71v5.44A14.48,14.48,0,0,1,163.25,220.81Z" style="fill:#141414"/><path d="M32.21,90.55c.94,0,1.88,0,2.81.07,7.76.28,15.5.68,23.22,1.55a112.33,112.33,0,0,1,18,3.26C81.6,96.94,86.7,99,90.91,102.81c6,5.4,8.17,11.94,5.94,19.79a30.53,30.53,0,0,1-3.11,7.07,7.44,7.44,0,0,0-.83,2c-.19.79.15,1.14.94,1a10.25,10.25,0,0,0,2.26-.78,37.36,37.36,0,0,0,11.78-8.65c4.77-5.27,7.43-11.4,7.23-18.58-.07-2.17-.47-4.33-.69-6.5a8.91,8.91,0,0,1,0-1.26,3.87,3.87,0,0,1,1.25.28,18.67,18.67,0,0,1,9,12c2,6.53,1.9,13.18.94,19.86a97.17,97.17,0,0,1-4.51,17.84,7.83,7.83,0,0,0-.41,2.08c0,.72.36,1,1,.72a11.29,11.29,0,0,0,1.88-1,79.91,79.91,0,0,0,15.05-12.38,61,61,0,0,0,13.42-20.58c3.45-9.12,4.33-18.46,1.71-27.93A45.26,45.26,0,0,0,140.44,66a56.75,56.75,0,0,0-24.91-13.17c-2-.49-4-.71-6-1h-2.14l-1.16.25a9,9,0,0,0-1.29.29c-.35.14-.91.46-.89.66a1.88,1.88,0,0,0,.66,1,4.42,4.42,0,0,0,1.16.66,57.26,57.26,0,0,1,14.49,9.23,49.06,49.06,0,0,1,15.52,23.41c.39,1.32.69,2.67,1,4,.11.51.2,1.21-.44,1.37a1.91,1.91,0,0,1-1.44-.36,5.87,5.87,0,0,1-1.32-1.48A48.62,48.62,0,0,0,125.91,82c-10.72-9.46-23.39-13.85-37.53-14.38a7.89,7.89,0,0,0-2,.22c-1.13.26-1.27.84-.42,1.66.6.59,1.28,1.11,1.89,1.7,3.77,3.67,7,7.73,8.85,12.73A30.94,30.94,0,0,1,98,89c.19,1.06-.31,1.39-1.33,1a10.05,10.05,0,0,1-1.45-.68A41.11,41.11,0,0,0,85,85.51,126.84,126.84,0,0,0,60,82.68c-6.42-.22-12.84-.15-19.26-.19-2,0-4,.08-6,.1-.53,0-.92,0-1.1.68-.62,2.18-1.3,4.35-2,6.52C31.53,90.28,31.63,90.55,32.21,90.55Z" style="fill:#141414"/></g></g></svg>