<svg id="Layer_2" data-name="Layer 2" xmlns="http://www.w3.org/2000/svg" viewBox="0 0 89.9 90"><title>bw_people</title><path d="M6.8,44.2H18.1A6.8,6.8,0,0,1,24.9,51V90a0,0,0,0,1,0,0H0a0,0,0,0,1,0,0V51A6.8,6.8,0,0,1,6.8,44.2Z"/><path d="M39.8,44.2H51.1A6.8,6.8,0,0,1,57.9,51V90a0,0,0,0,1,0,0H33a0,0,0,0,1,0,0V51A6.8,6.8,0,0,1,39.8,44.2Z"/><path d="M71.8,44.2H83.1A6.8,6.8,0,0,1,89.9,51V90a0,0,0,0,1,0,0H65a0,0,0,0,1,0,0V51A6.8,6.8,0,0,1,71.8,44.2Z"/><circle cx="44.8" cy="30.3" r="9.3"/><circle cx="77.8" cy="30.3" r="9.3"/><circle cx="12.8" cy="30.3" r="9.3"/><circle cx="27.8" cy="9.3" r="9.3"/><circle cx="62.8" cy="9.3" r="9.3"/></svg>