<svg id="Layer_1" data-name="Layer 1" xmlns="http://www.w3.org/2000/svg" viewBox="0 0 49.04 49.09"><path d="M26,37.73c-.44,1.22-.85,2.56-1.39,3.85a15.3,15.3,0,0,1-5.13,6.83A11.93,11.93,0,0,1,.82,40.72c-.79-5,1.08-9,5.16-12a22,22,0,0,1,6.93-3.2c.25-.07.49-.15.75-.24,0-.16,0-.32,0-.47a1.5,1.5,0,0,1,.88-1.46,1.53,1.53,0,0,1,1.76.36l5.07,5.06,6.13,6.13a1.52,1.52,0,0,1-.09,2.48A5.4,5.4,0,0,1,26,37.73ZM17.5,29.18c-.46-.43-.86-.78-1.22-1.17a.54.54,0,0,0-.64-.14c-.67.22-1.35.42-2,.62a18.81,18.81,0,0,0-6,2.82A8.88,8.88,0,0,0,17.59,46a11.8,11.8,0,0,0,3.69-4.48,37.06,37.06,0,0,0,2.14-6,.45.45,0,0,0-.07-.36c-.38-.44-.78-.86-1.26-1.38-.4,1.18-.74,2.21-1.08,3.24a19.11,19.11,0,0,1-2.72,5.84,6.83,6.83,0,0,1-7.38,2.71A6.61,6.61,0,0,1,5.7,40.2,6.8,6.8,0,0,1,8.37,33a17.15,17.15,0,0,1,5.28-2.57C14.89,30,16.14,29.64,17.5,29.18Zm2.11,2.53c-2,.67-3.88,1.29-5.75,1.95a11.16,11.16,0,0,0-3.95,2.1,4,4,0,0,0-.14,5.74,4,4,0,0,0,5.78-.22,6.86,6.86,0,0,0,1.21-1.91C17.75,36.86,18.65,34.31,19.61,31.71Z" transform="translate(-0.65 -1.54)"/><path d="M36.71,26.92a5.21,5.21,0,0,1-.11,1,1.51,1.51,0,0,1-2.56.54c-1-1-2-2-3-3l-8.25-8.25a1.53,1.53,0,0,1,.57-2.62,5,5,0,0,1,1-.06c.14-.44.29-.91.43-1.38A18.46,18.46,0,0,1,29.31,5.1,11.46,11.46,0,0,1,41.45,2.18a11.23,11.23,0,0,1,8,9.3c.84,5-1.07,9-5.15,12a21.39,21.39,0,0,1-6.63,3.1Zm-8.47-8.47c.33-1,.61-1.8.88-2.64a24.92,24.92,0,0,1,2.39-5.66,7.07,7.07,0,0,1,7.12-3.57,7,7,0,0,1,6.11,7.94,7.43,7.43,0,0,1-3.63,5.24A23.31,23.31,0,0,1,36,21.94L32.86,23c.43.42.81.76,1.16,1.14a.56.56,0,0,0,.67.18c1-.32,2-.6,2.92-.91a17.26,17.26,0,0,0,5.17-2.57,9,9,0,0,0,3.8-6.67A8.85,8.85,0,0,0,35.34,5a9.91,9.91,0,0,0-5.8,4.8,29.79,29.79,0,0,0-2.63,7,.45.45,0,0,0,.07.36C27.37,17.53,27.77,18,28.24,18.45Zm2.53,2c2.15-.74,4.26-1.38,6.3-2.19a12.84,12.84,0,0,0,3.24-1.8,3.87,3.87,0,0,0,.23-5.81,4,4,0,0,0-5.8.3,10.54,10.54,0,0,0-1.57,2.72C32.31,15.91,31.58,18.18,30.77,20.48Z" transform="translate(-0.65 -1.54)"/><path d="M33.9,40.6c0,.33,0,.66,0,1A1.48,1.48,0,0,1,32.34,43a1.53,1.53,0,0,1-1.48-1.44c-.12-1.15-.2-2.31-.41-3.44a6.88,6.88,0,0,0-2-3.55Q22.72,28.84,17,23.12a1.61,1.61,0,0,1-.51-1.64,1.54,1.54,0,0,1,2.62-.6c1.65,1.63,3.28,3.27,4.92,4.91,2.14,2.14,4.25,4.31,6.43,6.41a11.48,11.48,0,0,1,3.41,8v.41Z" transform="translate(-0.65 -1.54)"/><path d="M32.06,32.14A5,5,0,0,1,31,31.52q-5.64-5.61-11.26-11.25a1.55,1.55,0,0,1,0-2.23,1.52,1.52,0,0,1,2.22.06q5.64,5.61,11.26,11.25a1.51,1.51,0,0,1,.4,1.75A1.8,1.8,0,0,1,32.06,32.14Z" transform="translate(-0.65 -1.54)"/></svg>