<svg id="Layer_1" data-name="Layer 1" xmlns="http://www.w3.org/2000/svg" viewBox="0 0 43.6 48.73"><path d="M17.17,33,6.53,13.68c2.8-3.28,5.78-6.29,9.73-8.17a11.83,11.83,0,0,1,6.06-1.12c1.75.12,3.49.27,5.23.31a19.13,19.13,0,0,0,3.3-.21,7.9,7.9,0,0,0,4.77-3l.5-.61,1.52,2.75q4.39,8,8.81,16a.51.51,0,0,1-.12.76,13.09,13.09,0,0,1-9.11,3.85,36.87,36.87,0,0,1-6-.24A9.89,9.89,0,0,0,23,26.68a33.42,33.42,0,0,0-5.55,6ZM22.28,9.1A9.58,9.58,0,0,0,17,10.2l2,3.66a8.8,8.8,0,0,1,5.06-1.32c-.38-.68-.72-1.28-1-1.89s-.53-1-.79-1.56H28c-.6-1.09-1.12-2.07-1.68-3a.61.61,0,0,0-.44-.2c-1-.09-2-.18-3-.23s-1.7,0-2.65,0Zm4,7.23a20.53,20.53,0,0,0-2.84.24,16.59,16.59,0,0,0-2.44.92l-2-3.67-4,3.2c-.61-1.11-1.23-2.25-1.88-3.37a.44.44,0,0,1,.13-.68l3.74-2.92L15.33,7.23l-4.1,3.13,1.56,2.87c-1,1-1.92,2-2.89,3a.62.62,0,0,0-.12.9c.58.95,1.1,1.95,1.64,2.93l.23.39,3.25-3.39,2,3.67c-1,1.08-2,2.13-3,3.16a.48.48,0,0,0-.08.67c.37.62.7,1.25,1.06,1.88.26.47.52.93.78,1.41L19,24.44l-1.54-2.78c-.49-.88-.49-.88.26-1.57a19.13,19.13,0,0,1,3.37-2.5l2,3.61L19,24.44l1.55,2.8,4.05-3.19-1.44-2.77a8,8,0,0,1,5-1.34c-.55-1-1.05-1.9-1.53-2.81-.14-.26-.25-.54-.37-.8a5.2,5.2,0,0,1,.78-.1l4,0H32l-2-3.71a19.67,19.67,0,0,0,5.37-.82l-2-3.59a9.79,9.79,0,0,0,4-2.59L35.89,3a9.56,9.56,0,0,1-4,2.55l1.43,2.6a19.52,19.52,0,0,1-5.3,1L30,12.56H24.12c.54,1,1,1.89,1.54,2.79C25.84,15.69,26.05,16,26.25,16.33ZM34,20H28.26c.49.9.94,1.75,1.42,2.58a.59.59,0,0,0,.42.21c1.17.1,2.33.18,3.5.26.69.05,1.39.08,2.18.12L34,19.92a19.93,19.93,0,0,0,5.33-.8l-1.93-3.53-5.4.78Zm1.36-8.19,2,3.67a9.76,9.76,0,0,0,4.09-2.36l-2-3.66A10.5,10.5,0,0,1,35.37,11.78Zm8.14,5a10.52,10.52,0,0,1-4,2.34l1.73,3.15A11.39,11.39,0,0,0,45,20a.43.43,0,0,0,.08-.39C44.56,18.71,44.05,17.8,43.51,16.82Z" transform="translate(-2.97 -0.86)"/><path d="M24.27,48.5a1,1,0,0,1-.71,1,1,1,0,0,1-1.15-.48c-.38-.65-.73-1.31-1.1-2L3.18,14.18a1,1,0,0,1,0-1.33,1,1,0,0,1,1.67.32l2.15,3.91L23.24,46.46c.28.51.56,1,.83,1.52A3.73,3.73,0,0,1,24.27,48.5Z" transform="translate(-2.97 -0.86)"/></svg>