<svg id="Layer_1" data-name="Layer 1" xmlns="http://www.w3.org/2000/svg" viewBox="0 0 49.25 48.21"><g id="Np6ceh"><path d="M14.79,37.46a59.09,59.09,0,0,0-4.48,4.63A6.42,6.42,0,0,0,9.49,45c-.26,1.8-3.21,4.48-5,4.49S1.84,48.14,1.12,46.9c-.59-1-.12-2.15.65-3.12a8.8,8.8,0,0,1,5.78-3.33,2.52,2.52,0,0,0,1.33-.64c1.69-1.66,3.25-3.46,5-5.06a10.74,10.74,0,0,0,.91-1s0-.81,0-1.26c0-2.79,0-5.58,0-8.68a60.72,60.72,0,0,0-4.62,4.57c-.56.68-.49,1.9-.69,2.87-.07.35,0,.81-.19,1-1,1.15-2.12,2.29-3.28,3.33a1.86,1.86,0,0,1-2.61,0,8.06,8.06,0,0,1-2.27-2.32,3,3,0,0,1,.38-2.63,18.22,18.22,0,0,1,3.77-3.28c.66-.45,1.86-.12,2.49-.58,1.53-1.11,2.91-2.47,4.33-3.73a13.78,13.78,0,0,0,2.65-2.82c0-.14.09-2.65.07-4.09s-.12-2.71-.06-4.25A7,7,0,0,1,16,7.82a48.57,48.57,0,0,1,3.74-4.61,6.52,6.52,0,0,1,4.09-1.65c.57,0,1.62-.09,2-.09,3.8.06,4.95,1.27,7.24,4.18a20.07,20.07,0,0,1,1.43,2.09,6.35,6.35,0,0,1,1.14,4.06c-.11,2.25-.07,4.52,0,6.78,0,.26,0,.5,0,.78a6.57,6.57,0,0,0,.66.93c1.83,2,3.7,3.92,5.66,5.77a3.88,3.88,0,0,0,2.17,1,5.09,5.09,0,0,1,3.53,1.64c.63.69,1.29,1.36,1.92,2.05a2.25,2.25,0,0,1,0,2.91c-.48.54-1,1.07-1.5,1.57-1.23,1.15-2.13,1.33-3.3.27a19.77,19.77,0,0,1-3.11-3.6c-.45-.67-.37-1.68-.68-2.47a5.5,5.5,0,0,0-1.12-1.88c-1.31-1.36-2.72-2.63-4.25-4.09v1.79c0,2.35,0,4.7,0,7.05,0,.28,0,1,0,1l.63.63c1.69,1.82,3.51,3.53,5.22,5.32A6,6,0,0,0,45.23,41c1.25.18,4.42,2.82,4.76,4,.51,1.86-.75,2.86-1.84,3.94a2.41,2.41,0,0,1-3,.38c-1.76-1.23-3.58-2.53-3.81-5.06a4.59,4.59,0,0,0-1.45-3.06c-1.39-1.25-4.18-4-4.31-4,0,.58,0,1.27,0,1.85a6.38,6.38,0,0,1-1.15,4.29A61.46,61.46,0,0,1,30.35,48a5,5,0,0,1-4.21,1.63c-2.24.1-3.8.15-5.58-1.21a9.18,9.18,0,0,1-2-1.75,57.41,57.41,0,0,1-3.38-5.08,4.66,4.66,0,0,1-.41-2.23C14.79,38.87,14.79,38.36,14.79,37.46Zm4.89-8.69c1.41-.86,2-2.91,4.13-1.95.45,2.62-2.39,3.18-3.28,5.29,3.32.52,6.57.09,10.13.27a15.65,15.65,0,0,0-1-1.48,24.63,24.63,0,0,1-2.22-2.36c-.29-.43-.12-1.18-.15-1.79a6.43,6.43,0,0,1,1.93.23c.52.22.9.79,1.47,1.33V19.73h-11Zm0,7.49c-.44,3,.14,5.65,2.7,7.25,2.06,1.29,4.32,1,6.34-.46,1.62-1.13,2.44-4.19,1.8-6.79Zm0-21c.81-.75,1.42-1.31,2-1.88s1-.91,1.69-.28A1.21,1.21,0,0,1,23.49,15a4,4,0,0,0-.75.91H28.2c-.33-.38-1.19-1.18-1.21-1.47A1.71,1.71,0,0,1,27.93,13c.44-.3.77-.06,1.21.23a14.88,14.88,0,0,1,1.62,1.3c.14-3.06-.11-5.37-2.48-6.89a5.34,5.34,0,0,0-6.58.37C19.57,9.81,19.4,12.31,19.71,15.22ZM7.18,29.9A3.49,3.49,0,0,0,3.68,32c-.09.3.23.76.45,1.09a.83.83,0,0,0,.67.36C5.67,33.22,7.23,30.85,7.18,29.9Zm0,13.31c-1,0-3.23,1.42-3.51,2.31a1,1,0,0,0,.29.85,1.34,1.34,0,0,0,.95.43C5.83,46.59,7.29,44.28,7.2,43.21ZM47.65,32.13c-1.3-.88-1.84-2.91-4.31-2l3,3.59Zm-4,10.93c0,1.8,1.14,2.67,2.08,3.59.17.16.9,0,1.14-.24A1.14,1.14,0,0,0,47,45.29a9.75,9.75,0,0,0-1.83-1.68A6.38,6.38,0,0,0,43.66,43.06Z" transform="translate(-0.85 -1.47)"/></g></svg>