<svg id="Layer_1" data-name="Layer 1" xmlns="http://www.w3.org/2000/svg" viewBox="0 0 28.93 45.16"><path d="M58.35,42.53a.34.34,0,0,0,.32.34c3.93.27,4.77,1.31,4.95,5.05a22.38,22.38,0,0,0,.86,3.8,21.05,21.05,0,0,1,.84,3.85c.12,3,.07,6.11,0,9.16a8.77,8.77,0,0,1-8.67,8.68c-3.86.06-7.73,0-11.6,0a6,6,0,0,1-6.16-4.76c-.78-2.87-1.34-5.81-2.18-8.66-.74-2.51,0-4.48,1.54-6.45a6.08,6.08,0,0,0,1.25-3.26c.13-4.75,0-9.5.07-14.25,0-4,1.28-5.74,4.9-5.22.62.09,1.17-.73,1.69-1.19,2.22-2,4.66-1.78,6.3.72A14.43,14.43,0,0,1,53.11,32c3.26-.33,5.12,1.49,5.22,4.28C58.4,38.33,58.35,40.38,58.35,42.53Zm-12,19.72c-.15.23-.12.3-.23.06-.67-1.57-1-2.31-1.49-3.42a.34.34,0,0,1,.21-.46c2.76-.85,5.43-1.58,8-2.59.5-.2.82-.85,1.14-1.49a1,1,0,0,0-.36-1.3A2.7,2.7,0,0,0,52,52.41c-3.2.34-6.39.86-9.55,1.49a4.16,4.16,0,0,0-3.51,5.35c.65,3.06,1.58,6.06,2.39,9.09a3.12,3.12,0,0,0,3.21,2.59c4.49,0,9,.06,13.47,0a5,5,0,0,0,4.85-4.47c.11-3.43,0-6.87,0-10.79a.33.33,0,0,0-.54-.27,3.78,3.78,0,0,1-4.78.36.35.35,0,0,0-.37,0l-4.79,3.12a.34.34,0,0,0-.1.47c3,4.81,3.52,5.48,1.19,6.13-.16,0-.49-.35-.56-.5-.6-1.3-.77-2.6-2.32-4.2a2.71,2.71,0,0,0-2.6-.33A5.61,5.61,0,0,0,46.31,62.25ZM51,47.76a.35.35,0,0,1-.24-.33c0-4.65.09-9.13-.07-13.61,0-1,.07-2.65-1.21-2.76-1.73-.15-2.08,1.35-2.08,2.63,0,4.24,0,8.49,0,12.73v0a1.05,1.05,0,0,1-2,.22.84.84,0,0,1,0-.27c-.13-3.74,0-7.49-.14-11.23a1.67,1.67,0,0,0-.36-1.25,2,2,0,0,0-2-.33c-.88.36-.88,1.85-.89,2.26-.14,5.28,0,9.79,0,15.11a.34.34,0,0,0,.33.35c4.52.14,8.7-2.45,13.23-.75a.34.34,0,0,0,.46-.31c0-4.55.06-9-.06-13.5a4.48,4.48,0,0,0-.3-2.06,1.38,1.38,0,0,0-2,.11,3.86,3.86,0,0,0-.34,1.9c-.16,3.15-.1,6.32-.06,9.48C53.12,47.78,52.46,48.21,51,47.76Zm7.33,1.73a13.9,13.9,0,0,0,.06,3c.12.55.78,1.34,1.23,1.38a1.44,1.44,0,0,0,1.56-1.07,38.39,38.39,0,0,0,0-6.16,1.3,1.3,0,0,0-1.52-1.09c-.91.05-1.15.74-1.29,1.28A11,11,0,0,0,58.36,49.49Z" transform="translate(-36.47 -28.29)"/></svg>