<svg xmlns="http://www.w3.org/2000/svg" viewBox="0 0 125.94 125.94"><g id="Layer_2" data-name="Layer 2"><g id="Layer_1-2" data-name="Layer 1"><path d="M63.57,26.18a4,4,0,0,0,4-4V4a4,4,0,1,0-8,0V22.18A4,4,0,0,0,63.57,26.18Zm0,6.56a29.61,29.61,0,1,0,29.6,29.6A29.64,29.64,0,0,0,63.57,32.74Zm0,51.21a21.61,21.61,0,1,1,21.6-21.61A21.63,21.63,0,0,1,63.57,84ZM81.88,31.41a4,4,0,0,0,5.47-1.47L96.44,14.2a4,4,0,1,0-6.93-4L80.42,25.94A4,4,0,0,0,81.88,31.41Zm-71.68,5,15.74,9.09a3.93,3.93,0,0,0,2,.54,4,4,0,0,0,2-7.46L14.2,29.51a4,4,0,1,0-4,6.92Zm84.93,8.66a4,4,0,0,0,3.47,2,3.9,3.9,0,0,0,2-.54l15.75-9.09a4,4,0,1,0-4-6.92L96.59,39.63A4,4,0,0,0,95.13,45.09ZM39.63,29.35a4,4,0,0,0,6.92-4L37.46,9.6a4,4,0,1,0-6.92,4Zm-13.45,33a4,4,0,0,0-4-4H4a4,4,0,1,0,0,8H22.18A4,4,0,0,0,26.18,62.38Zm89.56,27.13L100,80.42a4,4,0,0,0-4,6.93l15.74,9.09a4,4,0,1,0,4-6.93Zm6.2-29.94H103.76a4,4,0,0,0,0,8h18.18a4,4,0,1,0,0-8Zm-35.62,37a4,4,0,0,0-6.93,4l9.09,15.75a4,4,0,0,0,3.46,2,3.93,3.93,0,0,0,2-.54,4,4,0,0,0,1.46-5.46ZM30.81,80.85a4,4,0,0,0-5.46-1.46L9.6,88.48a4,4,0,0,0,2,7.46,3.9,3.9,0,0,0,2-.54l15.75-9.09A4,4,0,0,0,30.81,80.85ZM62.38,99.76a4,4,0,0,0-4,4v18.18a4,4,0,1,0,8,0V103.76A4,4,0,0,0,62.38,99.76ZM44.06,94.54A4,4,0,0,0,38.6,96l-9.09,15.74a4,4,0,1,0,6.92,4L45.52,100A4,4,0,0,0,44.06,94.54Z" style="fill:#141414"/></g></g></svg>