<svg id="Layer_1" data-name="Layer 1" xmlns="http://www.w3.org/2000/svg" viewBox="0 0 157.6 174.1"><title>ci-silverware</title><path d="M72.1,89.1l-3.6,2.1c-8,5-17.5,3-22.9-4.7L17.8,46c-6.4-9.4-8.6-19.7-5.4-30.8A28.7,28.7,0,0,1,16.5,7c1.6-2.4,2.8-2.2,4.7,0C39.1,28,56.9,49.2,75.1,70c8.4,9.7,17.6,18.7,26.4,28.1L156,155.3c1.5,1.6,2.6,3.4,2.4,5.7a6.4,6.4,0,0,1-2.3,4.6l-9.5,8.2c-3.5,2.9-7.4,2.5-10.2-1.1L113,142.3,73.2,90.6Z" transform="translate(-10.9 -1.8)"/><path d="M100.1,90.2c-.2-.2-9.8-10.4-9.6-10.4L98,71.1c1.3-1.7,1.9-2.7,1.5-4.6s-.4-4.3-.7-6.4A21.6,21.6,0,0,1,104,43q15.6-18.5,31.4-36.7l3.1-3.7a1.6,1.6,0,0,1,2.6-.2l2.7,2.2c1.6,1.4,1.6,1.6.3,3.3L119,39.7c-1.1,1.3-2.1,2.6-3.1,4s-1.2,2.3.4,3.6,2.7,1.7,4.1,0l29.3-34.2c1.8-2.2,1.8-2.2,4.1-.4,4.2,3.5,4,2.6.7,6.7-8.8,11.2-17.6,22.4-26.5,33.5-2.2,2.6-.7,3.8,1.7,5.1s1.8-.2,2.5-1c5.9-7,11.9-13.9,17.8-20.8l11.9-13.9c1.3-1.6,1.6-1.6,3.2-.3s1.7,1.4,2.5,2,1.1,1.5.3,2.6L157.8,39.3c-7.4,9.3-14.9,18.5-22.1,27.9-5.2,6.7-11.9,10-20.3,9.7-4.3-.1-7,2-9.3,5.2C105,83.7,101.2,88.7,100.1,90.2Z" transform="translate(-10.9 -1.8)"/><path d="M73.9,99c.4.2,10.9,14,11.4,14.7s-24.4,30.6-32.9,41.4L39.6,172.5c-3.5,4.4-6.6,4.3-10.4,1.3L20,166.3a6.2,6.2,0,0,1-.6-9.2C36,138.9,73.6,99.2,73.9,99Z" transform="translate(-10.9 -1.8)"/></svg>