<svg xmlns="http://www.w3.org/2000/svg" viewBox="0 0 106.85 98.2"><g id="Layer_2" data-name="Layer 2"><g id="Layer_1-2" data-name="Layer 1"><path d="M106.67,87.24,103,69.05a6.44,6.44,0,0,0,2-4.36c.05-1,.07-2,.07-2.91,0-29.51-19.47-54-44.66-57.82a4.53,4.53,0,0,0-4.48-4h-5a4.53,4.53,0,0,0-4.48,4C21.26,7.82,1.79,32.27,1.79,61.78c0,.95,0,1.93.07,2.91a6.4,6.4,0,0,0,2,4.36L.18,87.24a9.16,9.16,0,0,0,9,11h.42a9.06,9.06,0,0,0,5.67-2C24.08,89.14,38.43,84.9,53.63,84.9S83.19,89.14,92,96.23a9.16,9.16,0,0,0,14.65-9ZM9.79,61.78C9.79,34,29.36,11.41,53.42,11.41S97.06,34,97.06,61.78v.15c-8.87-4.27-19.75-7.09-31.58-8.23a25.41,25.41,0,0,0,6.18-8.07c3-6.22,2.76-12.32-1.25-18.09A20.64,20.64,0,0,0,60.16,20a12.89,12.89,0,0,0-5.69-.94,6.74,6.74,0,0,0-1,.24l0,.24a10.2,10.2,0,0,0,.9.54A21.45,21.45,0,0,1,65,30.22a31.88,31.88,0,0,1,1.39,4c.1.3.23.71-.38,1-.26-.25-.58-.52-.86-.83a48.67,48.67,0,0,0-3.31-3.71,21,21,0,0,0-10.68-5,41,41,0,0,0-4.32-.35,2.08,2.08,0,0,0-.6.19l-.17.3a2.57,2.57,0,0,1,.65.36,13.46,13.46,0,0,1,4.18,6.05,19.54,19.54,0,0,1,.39,1.92,4.59,4.59,0,0,1-.85-.18c-.43-.18-.84-.42-1.27-.62a25.49,25.49,0,0,0-8.34-1.89A116.35,116.35,0,0,0,28,31.05H26l-.91,3c.32,0,.51.07.7.08,2.6.15,5.2.26,7.8.43a46.84,46.84,0,0,1,8.33,1.27A14.83,14.83,0,0,1,48.43,39,7.15,7.15,0,0,1,51,45.79a11.58,11.58,0,0,1-1.44,3.75,6.85,6.85,0,0,0-.4,1l.16.12a6.72,6.72,0,0,0,3-1.38c4.54-3,6.52-7.2,5.2-12.82a7.41,7.41,0,0,1,.83.32A6.79,6.79,0,0,1,61,39.72a15,15,0,0,1,1.17,8.81,31.93,31.93,0,0,1-1,4.84c-2.55-.16-5.14-.25-7.76-.25-16.43,0-31.81,3.12-43.63,8.81Zm88.79,28a1.1,1.1,0,0,1-.89.42A1.06,1.06,0,0,1,97,90c-10.36-8.33-26.17-13.1-43.4-13.1s-33,4.77-43.39,13.1a1.08,1.08,0,0,1-.66.2H9.16a1.14,1.14,0,0,1-.9-.42,1.17,1.17,0,0,1-.24-1l3.8-19c10.77-5.55,25.88-8.74,41.6-8.74S84.26,64.31,95,69.86l3.8,19A1.17,1.17,0,0,1,98.58,89.78Z"/></g></g></svg>