<svg xmlns="http://www.w3.org/2000/svg" viewBox="0 0 218.62 189.52"><g id="Layer_2" data-name="Layer 2"><g id="Layer_1-2" data-name="Layer 1"><path d="M215.85,69.87,106.69,0,2.65,69.94A6,6,0,0,0,4.42,80.7V93.1a5.86,5.86,0,0,0,.09,1v70.54a6,6,0,0,0,12,0V98.8l69.85-3.51V152a6,6,0,0,0,12,0V94.69l22.14-1.11v89.94a6,6,0,0,0,12,0V93.63l68.77,5v66a6,6,0,0,0,12,0v-71a5.44,5.44,0,0,0,0-.57V80.88a6,6,0,0,0,2.55-11Zm-112-53.5,14.54,38.16L27.23,67.88ZM120.5,81.56,16.42,86.79v-5.2L120.5,66.35ZM131,54,118.85,22l68.82,44ZM201.3,86.64l-68.8-5v-15l68.8,14.71Z" style="fill:#141414"/></g></g></svg>