<svg xmlns="http://www.w3.org/2000/svg" viewBox="0 0 141.37 223.1"><g id="Layer_2" data-name="Layer 2"><g id="Layer_1-2" data-name="Layer 1"><path d="M44,43.38H36.37v7H44ZM66.74,179.72h7.55v-7H66.74ZM59.25,43.38H51.62v7h7.63ZM51.62,179.72h7.56v-7H51.62Zm-15.12,0h7.56v-7H36.5Zm38-136.34H66.87v7H74.5Zm-45.75,0H21.12v7h7.63ZM21.39,179.72h7.55v-7H21.39Zm76-129.34H105v-7H97.37Zm22.88-7h-7.63v7h7.63Zm-.6,129.34h-7.56v7h7.56Zm13.87-147.3-.82,0A17.8,17.8,0,0,1,114.93,7.75V0H26.43V7.76A17.8,17.8,0,0,1,8.66,25.44l-.82,0L0,25.06V198l7.84-.36.82,0a17.8,17.8,0,0,1,17.78,17.69v7.75h88.5v-7.76a17.79,17.79,0,0,1,17.77-17.68l.82,0,7.85.36v-173Zm-7.15,157.85a32.88,32.88,0,0,0-25.61,24.83H40.61A32.89,32.89,0,0,0,15,183.27V39.82A32.88,32.88,0,0,0,40.61,15h60.15a32.86,32.86,0,0,0,25.61,24.82ZM97,179.72h7.56v-7H97Zm-15.12,0h7.56v-7H81.85ZM48.53,98.81l7.07,7.07L67,94.46v47.29H77V82.39l-8.53-3.54ZM82.12,50.38h7.63v-7H82.12Z" style="fill:#141414"/></g></g></svg>