<?xml version="1.0" encoding="utf-8"?>
<!-- Generator: Adobe Illustrator 23.0.4, SVG Export Plug-In . SVG Version: 6.00 Build 0)  -->
<svg version="1.1" id="Layer_1" xmlns="http://www.w3.org/2000/svg" xmlns:xlink="http://www.w3.org/1999/xlink" x="0px" y="0px"
	 viewBox="0 0 174.6 154.9" style="enable-background:new 0 0 174.6 154.9;" xml:space="preserve">
<title>ci-tshirt2</title>
<path d="M38.2,67.06H17.6c-3.9-0.1-5-0.8-6.2-4.49L0.6,29.75c-1.3-3.99-0.5-5.69,3.3-7.28L54.2,0.92c2.1-1.04,4.57-0.96,6.6,0.2
	c17.73,8.58,35.4,8.58,53,0c2.08-1.11,4.56-1.19,6.7-0.2l50.1,21.45c4,1.7,4.7,3.39,3.4,7.48l-10.8,32.82c-1.1,3.49-2.3,4.29-6,4.29
	h-20.8v81.2c0,5.09-1.3,6.48-6.4,6.48H44.6c-5,0-6.4-1.4-6.4-6.48C38.2,148.16,38.2,67.06,38.2,67.06z M119.58,8.43
	c-1.35,4.34-5.2,28.65-31.19,28.65c-27.87,0-33.91-26.01-34.4-27.98L9.42,28.89c3.38,10.16,6.57,20.03,9.96,29.8
	c0.19,0.69,1.55,1.28,2.42,1.38h18.76c4.93,0,6.19,1.28,6.19,6.31v79.21h81.8V66.09c0-4.54,1.35-6.02,5.8-6.02h18.47
	c1.74,0,2.61-0.49,3.19-2.27c2.8-8.98,5.7-17.76,8.7-26.64c0.68-1.87,0.39-2.66-1.45-3.45c-11.99-5.13-23.98-10.43-35.97-15.88
	L119.58,8.43z M63.3,11.29c3.2,9.98,14.44,18.52,24.98,18.52c10.82,0,19.69-7.72,23.12-18.72C95.66,15.35,79.08,15.42,63.3,11.29z"
	/>
</svg>
