<svg id="Layer_1" data-name="Layer 1" xmlns="http://www.w3.org/2000/svg" viewBox="0 0 40.65 44.91"><path d="M66.72,69.24H63.43c0-1,0-1.92,0-2.87-.08-7.9.28-15.85-.38-23.7-.77-9.15-8.74-15.35-17.84-14.82-8.57.5-15.43,7.83-15.56,16.86-.12,8.07,0,16.14,0,24.41H26.08V45.57c0-11.84,9-21.21,20.25-21.23,11.58,0,20.34,9,20.39,21C66.74,53.22,66.72,61.11,66.72,69.24Z" transform="translate(-26.08 -24.34)"/><path d="M56.84,54.68v-7h-3v-6H39.42v5.89H36.18v7H33V69H60V54.68ZM42.57,44.14h8.51v3.38H42.57Zm-3.19,6H53.59v4.31H39.38ZM56.51,66.35H36.4v-8.6H56.51Z" transform="translate(-26.08 -24.34)"/><g id="vgLaZV"><path d="M47.66,33.81a2.57,2.57,0,0,1,4.12,1.42,3.32,3.32,0,0,1-.33,2.27,7.55,7.55,0,0,1-1.7,2.19,17.53,17.53,0,0,1-2.58,2,.16.16,0,0,1-.15,0,16.44,16.44,0,0,1-3-2.38,6.53,6.53,0,0,1-1.42-2.07A3.07,3.07,0,0,1,42.48,35a2.59,2.59,0,0,1,2.6-1.71,2.73,2.73,0,0,1,1.81,1.1l.18.21A3.11,3.11,0,0,1,47.66,33.81Z" transform="translate(-26.08 -24.34)"/></g></svg>