<?xml version="1.0" encoding="utf-8"?>
<!-- Generator: Adobe Illustrator 25.2.0, SVG Export Plug-In . SVG Version: 6.00 Build 0)  -->
<svg version="1.1" xmlns="http://www.w3.org/2000/svg" xmlns:xlink="http://www.w3.org/1999/xlink" x="0px" y="0px"
	 viewBox="0 0 200.94 212" style="enable-background:new 0 0 200.94 212;" xml:space="preserve">
<g id="Layer_1">
</g>
<g id="Layer_2">
	<g>
		<g>
			<path d="M196.73,65.67c-1.94,5.25-6.01,5.93-11.61,6.54c-16.61,1.82-33.24,2.79-49.95,2.01c-1.57-0.07-2.88-0.32-3.67,1.78
				c-7.56,19.95-21.61,34.56-38.66,46.59c-2.11,1.49-3.11,3.02-3.31,5.62c-1.7,22.25-3.54,44.49-5.33,66.73
				c-0.41,5.05-2.5,8.81-7.15,10.23c-0.12,0.04-0.24,0.06-0.36,0.08c-1.91,0.23-3.67,0.41-6.53-0.6c-5.39-2.54-6.84-6.88-7.16-12.81
				c-1.4-25.85-3.08-51.68-4.7-77.52c-0.33-5.3,1.63-9.63,5.41-13.13c3.34-3.1,6.85-6.04,10.32-9.01
				c6.32-5.4,11.91-11.39,15.49-19.04c0.5-1.08,0.94-2.18,1.34-3.14c-11.04-2.79-21.82-5.37-32.51-8.26
				c-5.03-1.36-9.95-3.17-14.81-5.06c-6.03-2.35-8.63-8.18-6.44-13.79c2.17-5.58,7.99-7.97,14.1-5.79
				c37.61,13.43,76.39,18.05,116.1,15.51c5.09-0.32,10.18-0.75,15.23-1.48c6.49-0.94,11.83,0.42,14.29,6.33
				C197.55,59.53,197.77,62.52,196.73,65.67z"/>
			<path d="M31.25,105.43c7.04,0,13.57,0,20.12,0c0,7.79,0,15.83,0,24.2c-13.11,0.84-26.2,1.34-38.94-2.58
				c-8.51-2.62-10.74-7.74-7.51-15.99c5.48-13.99,10.99-27.98,16.52-41.95c2-5.06,5.58-7.64,10.26-7.58
				c7.36,0.11,12.09,7.06,9.63,14.42c-2.86,8.55-5.9,17.04-8.85,25.56C32.05,102.76,31.69,104.02,31.25,105.43z"/>
		</g>
		<circle cx="117.87" cy="24.93" r="21.5"/>
	</g>
</g>
</svg>
