<?xml version="1.0" encoding="utf-8"?>
<!-- Generator: Adobe Illustrator 25.2.0, SVG Export Plug-In . SVG Version: 6.00 Build 0)  -->
<svg version="1.1" id="Layer_1" xmlns="http://www.w3.org/2000/svg" xmlns:xlink="http://www.w3.org/1999/xlink" x="0px" y="0px"
	 viewBox="0 0 218 212" style="enable-background:new 0 0 218 212;" xml:space="preserve">
<path d="M186,207.11c-7.6-7.39-15.87-14.24-22.61-22.35c-5.91-7.12-11.59-8.26-20.11-5.41c-12.11,4.05-24.69,6.74-37.09,9.9
	c-8.83,2.25-15.51-1.31-18.38-9.95c-5.4-16.25-10.75-32.51-15.87-48.85c-4.18-13.34,3.12-25.39,16.79-28.25
	c3.26-0.68,6.5-1.74,9.78-1.91c12.91-0.68,22.95-6.97,31.6-15.91c1.33-1.37,2.34-3.62,2.42-5.51c0.29-6.82-0.58-13.74,0.31-20.45
	c0.89-6.68-2.52-11.28-5.58-16.19c-0.69-1.11-2.8-1.55-4.35-1.9C86.74,32.2,50.55,24.13,14.37,16.03c-1.13-0.25-2.25-0.61-3.37-0.91
	c0-2.67,0-5.33,0-8c1.33,0,2.67,0,4,0c0.89,0.37,1.75,0.88,2.68,1.09c23.68,5.35,47.36,10.67,71.05,15.98
	c10.31,2.31,20.62,4.6,31.2,6.96c1.12-5.08,2.15-9.6,3.12-14.14c0.81-3.79,3.06-5.37,6.88-4.56c7.97,1.7,15.93,3.45,23.9,5.11
	c4.28,0.89,5.85,3.35,4.89,7.59c-1.02,4.5-1.96,9.02-3.03,14c6.86,1.56,13.29,3.08,19.75,4.47c11.84,2.55,23.7,5.01,35.56,7.51
	c0,1,0,2,0,3c-0.73,1.61-1.46,3.22-2.36,5.21c-1.53-0.26-3.14-0.47-4.73-0.83c-18.18-4.07-36.35-8.18-54.53-12.25
	c-4.38-0.98-8.23,0.77-8.34,4.32c-0.28,8.58-0.09,17.18-0.09,25.64c10.3,1.9,12.66,7.51,7.17,15.7c-1.11,1.66-2.09,3.44-3.38,4.95
	c-3.08,3.62-4.06,7.66-3.91,12.41c0.3,9.61,0.09,19.23,0.09,29.24c-2.88,0.22-5.27,0.4-8.4,0.64c0-8.56,0-16.59,0-24.35
	c-7.86,3.12-15.19,6.03-22.62,8.99c1.73,9.18,3.42,18.11,5.14,27.21c13.15-1.33,25.72-2.54,38.28-3.89
	c7.15-0.77,12.51,1.89,16.8,7.61c8.19,10.93,16.63,21.67,24.94,32.51c7.05,9.19,6.38,13.5-3.06,19.89
	C190,207.11,188,207.11,186,207.11z"/>
<path d="M82.44,97.23c-10.95,0.09-19.45-8.13-19.6-18.95c-0.16-11.01,8.45-19.81,19.39-19.82c10.59-0.01,19.41,8.74,19.51,19.35
	C101.83,88.43,93.17,97.13,82.44,97.23z"/>
<path d="M62.02,152.89c-0.76,3.04-1.34,5.37-2.01,8.04c-10.54-2.37-20.64-4.65-31.05-6.99c0.64-2.81,1.18-5.16,1.84-8.02
	C41.24,148.26,51.34,150.51,62.02,152.89z"/>
<path d="M50.28,130.12c-0.62,2.95-1.13,5.31-1.71,8.09c-10.37-2.32-20.36-4.55-31.01-6.94c0.56-2.75,1.06-5.24,1.63-8.11
	C29.57,125.49,39.56,127.72,50.28,130.12z"/>
</svg>
