<svg version="1.1" id="Layer_1" xmlns="http://www.w3.org/2000/svg" x="0" y="0" viewBox="0 0 336.86 337.03" xml:space="preserve"><style>.st0{fill:#fff}</style><path class="st0" d="M296.71 59.87c5.09 9.22 3.37 21.06-4.74 28.39l-11.62 10.49c-.49.44-1.28.36-1.72-.13l-29.3-32.45c-.44-.49-.45-1.29.04-1.73l11.62-10.49c8.12-7.34 20.1-7.84 28.71-1.87-62.65-65.36-166.33-69.46-233.98-8.37-68.91 62.23-74.32 168.54-12.09 237.45l.05.05c-8.73-9.81-7.94-24.73 1.82-33.54 4.95-4.47 9.94-6.13 15.98-6.15.79-.01 1.33.58 1.29 1.33l-.2 5.79c.01.7-.48 1.14-1.23 1.11-3.7.05-7.41 1.45-10.16 3.93-6.27 5.67-6.19 15.11-.62 21.29 5.53 6.13 14.93 7.07 21.2 1.41 2.94-2.66 4.42-6.04 4.98-9.57.08-.7.67-1.13 1.22-1.11l5.87.39c.7-.01 1.18.71 1.15 1.37-.41 6.25-3.25 11.57-7.62 15.51-9.73 8.79-24.51 8.18-33.38-1.42 62.28 68.54 168.32 73.82 237.09 11.7 67.57-61.02 74.08-164.42 15.64-233.38zm-54.1 12.36l3.63 4.02c.44.49.45 1.29-.09 1.77l-14.51 13.1 7.26 8.04 12.11-10.93c.49-.44 1.33-.4 1.77.09l3.67 4.07c.49.54.4 1.33-.09 1.77l-12.11 10.93 7.75 8.58 14.51-13.1c.54-.49 1.33-.4 1.77.09l3.63 4.02c.44.49.45 1.29-.09 1.77l-19.95 18.01c-.54.49-1.33.4-1.77-.09l-29.3-32.45c-.44-.49-.45-1.29.09-1.77l19.95-18.01c.54-.49 1.33-.4 1.77.09zM132.63 230.46c.44.49.45 1.29-.09 1.77l-4.46 4.03c-.49.44-1.33.4-1.77-.09l-29.79-32.98c-.44-.49-.36-1.28.13-1.72l1.23-1.11 39.95 3.25.05-.04-18.28-20.24c-.44-.49-.45-1.29.09-1.77l4.51-4.07c.49-.44 1.33-.4 1.77.09l29.79 32.98c.44.49.36 1.28-.13 1.72l-1.18 1.06-40.8-3.99-.05.04 19.03 21.07zm14.16-42.15c-8.85-9.8-8.09-24.82 1.71-33.67 4.95-4.47 9.94-6.13 15.98-6.15.79-.01 1.33.58 1.29 1.33l-.2 5.79c.01.7-.48 1.14-1.22 1.11-3.7.05-7.42 1.45-10.16 3.92-6.27 5.67-6.19 15.12-.62 21.29 5.53 6.13 14.93 7.07 21.2 1.41 2.94-2.66 4.42-6.04 4.98-9.57.08-.7.67-1.14 1.23-1.11l5.87.39c.7-.01 1.18.71 1.15 1.37-.41 6.25-3.25 11.57-7.62 15.51-9.81 8.85-24.74 8.18-33.59-1.62zm21.03-48.54c-.44-.49-.45-1.29.09-1.77l19.95-18.01c.54-.49 1.33-.4 1.77.09l3.63 4.02c.44.49.45 1.29-.09 1.77l-14.51 13.1 7.26 8.04 12.11-10.93c.49-.44 1.33-.4 1.77.09l3.67 4.07c.49.54.4 1.33-.09 1.77l-12.11 10.93 7.75 8.58 14.51-13.1c.54-.49 1.33-.4 1.77.09l3.63 4.02c.44.49.45 1.29-.09 1.77l-19.95 18.01c-.54.49-1.33.4-1.77-.09l-29.3-32.45zm28.53-25.76c-.44-.49-.45-1.29.09-1.77l4.51-4.07c.49-.44 1.33-.4 1.77.09l24.83 27.5 12.5-11.29c.54-.49 1.33-.4 1.77.09l3.63 4.02c.44.49.45 1.29-.09 1.77l-17.94 16.2c-.54.49-1.33.4-1.77-.09l-29.3-32.45zM57.09 221.91c-23.1-48.06-13.01-107.48 28.57-145.03 41.53-37.51 101.58-41.55 147.03-13.79L57.09 221.91zm34.23 47.55c-.73.66-1.7.38-1.98-.52l-14.55-46.75c-.12-.43-.1-.89.35-1.29l.49-.44c.49-.44.91-.37 1.32-.21l44.88 19.35c.87.37 1.05 1.36.32 2.03l-4.26 3.85c-.74.66-1.34.68-2.31.3l-7.18-3.12-14.65 13.23 2.38 7.46c.25.67.25 1.56-.54 2.26l-4.27 3.85zm159.8-9.38c-41.02 37.04-100.08 41.44-145.32 14.82l174.84-157.84c21.86 47.7 11.48 105.99-29.52 143.02z"/><path class="st0" d="M86.45 233.02l-.15.13 4.93 15.12 9.85-8.89zm179.3-172.61l-5.59 5.05 20.23 22.4 5.59-5.05c6.37-5.75 6.69-14.76.89-21.18-5.76-6.37-14.75-6.97-21.12-1.22z"/></svg>