<svg xmlns="http://www.w3.org/2000/svg" viewBox="0 0 220.42 657.71"><g data-name="Layer 2"><g data-name="Layer 1"><g data-name="Group 162"><path data-name="Path 8" d="M170 203.47c-.69 4.8-1.45 9.58-2.07 14.39-2 16.08-3 32.25-3.57 48.45-.31 8.41 1.1 16.63 2.22 24.9 1.58 11.73 2.9 23.49 4.33 35.24.47 3.83 1.09 7.64 1.41 11.48.44 5.21.92 10.43.94 15.65 0 14.12-1.64 28.1-3.65 42.05-1.17 8.14-2.43 16.26-3.9 24.35-.88 4.89-2.48 9.65-3.34 14.54a173.54 173.54 0 00-2.1 41 13.84 13.84 0 00.88 4c4.29 11.33 5 23.08 4.06 35-1.94 25.6-9.13 49.89-18.56 73.6-2.68 6.75-4.87 13.61-5.26 20.91a24.46 24.46 0 00.4 6.67 12.81 12.81 0 01-.3 7c-1.24 4.1-.66 6.24 2.8 8.78 3.31 2.43 6.92 4.46 10.22 6.9a22.83 22.83 0 015 4.94c1.55 2.16.91 4.13-1.59 5.12a19.29 19.29 0 01-6.5 1.43c-8 .17-16 .15-23.94.06a8.87 8.87 0 01-9.19-8.08 39.9 39.9 0 01-.11-8.94c.71-7.31 1.8-14.59 2.53-21.89.62-6.2 1.29-12.42 1.32-18.64q.09-22.42-.47-44.87c-.09-3.82-1.25-7.6-1.76-11.42a98.21 98.21 0 01-.1-25c1-8.76 2.64-17.47 4.21-26.16 1-5.41 1.13-10.84-1-15.83-3.85-8.93-4.25-18.36-5-27.77q-1.87-22.92-3.64-45.85c-.88-11.43-1.68-22.86-2.5-34.3-.3-4.1-.56-8.2-.86-12.3a1.92 1.92 0 00-.88-1.55c-.1.67-.24 1.34-.3 2-1.35 18.52-2.66 37-4.06 55.55-1.17 15.41-2.47 30.81-3.68 46.22a49.26 49.26 0 01-3.38 15.23c-2.87 6.89-3 13.94-1.36 21.24a148.92 148.92 0 014.16 40.78 85.43 85.43 0 01-1.53 13.34 77.91 77.91 0 00-1.19 16q-.07 23 .46 46c.12 4.83 1.3 9.62 1.79 14.45.67 6.69 1.2 13.39 1.67 20.1a16.17 16.17 0 01-.41 4.44 8.78 8.78 0 01-8.42 7.2c-8.48.14-17 .07-25.44 0a15.67 15.67 0 01-4.73-1c-3.44-1.19-4.24-3.45-2.06-6.3a22 22 0 014.6-4.29c2.93-2.11 6.09-3.89 9-6 4.67-3.31 5.13-4.93 3.7-10.46a9.1 9.1 0 01-.4-4.39c1.67-6.16.64-12.15-.88-18.08a82.61 82.61 0 00-3.57-10.7 279.79 279.79 0 01-16.6-56.52c-2.17-12.3-3.54-24.72-1.78-37.2.7-4.9 2.18-9.69 3.32-14.52a28.06 28.06 0 001.19-4.67c1-15.75.56-31.48-3.24-46.82a339.32 339.32 0 01-6.28-34.52c-1.78-12.71-3.28-25.46-3.43-38.33a111.87 111.87 0 011.36-20.84c1.26-7.22 1.57-14.61 2.48-21.9 1.24-10 2.8-20 3.92-30a125.71 125.71 0 001-17.88c-.38-12.33-1.09-24.65-2-36.95-.68-8.94-1.93-17.83-3-27.4a14.77 14.77 0 00-1.23 2.1c-3.28 9.8-6.51 19.61-9.83 29.4a10.27 10.27 0 00-.39 5.44 51.85 51.85 0 010 16c-2.34 18.37-7.67 36-13.3 53.57-1.45 4.5-2.86 9-4.66 13.4a11.47 11.47 0 000 8.71 60.62 60.62 0 013.61 20.87c0 3.06 1.11 6.1 1.58 9.16a39.11 39.11 0 01.54 6.3 3 3 0 01-1.3 2.37 2.83 2.83 0 01-2.44-1.11c-1.66-2.62-3.1-5.38-4.58-8.11-.53-1-.81-2.11-1.41-3a1.68 1.68 0 00-3.16.28 5.85 5.85 0 00-.28 2.9 63.09 63.09 0 005.83 17.27c.92 1.83 2.68 3.23 4 4.84a58.79 58.79 0 013.69 4.65c.41.61.25 1.6.35 2.42-.82 0-1.83.37-2.44 0-2.91-1.66-6.22-3-8.43-5.38A132.81 132.81 0 015.21 368.3c-3.52-5-4.62-10.95-4.3-17.1.24-4.47.6-8.95.66-13.43A52.13 52.13 0 001 327.71c-1.14-6.13-.06-12.16.28-18.23.46-8.44 1.57-16.84 1.32-25.35A121.17 121.17 0 0110.33 238a8.65 8.65 0 00.63-3.59c-1.53-18.7 1.41-36.76 7.6-54.36a20.8 20.8 0 001.29-7.28c-.1-10.13.74-20.18 3.64-29.94 2.2-7.38 5.57-14.13 11.08-19.66a31.65 31.65 0 0116.86-9.06 34.58 34.58 0 0012.42-4.9c6.72-4.28 13.41-8.63 20.27-12.7 4-2.37 4.87-6.41 6.25-10.23.14-.37-.32-1.16-.72-1.5-3.26-2.7-4.76-6.27-5.41-10.35A18.09 18.09 0 0083 70.9c-1.31-3.62-2.91-7.17-3.88-10.88-.84-3.2-1.43-6.6 1.21-9.58.59-.66.4-2.11.38-3.19-.13-4.61-.45-9.21-.47-13.82a17.87 17.87 0 018.19-15.5c6.74-4.7 14-7.49 22.34-7.14 8.76.35 16.17 3.94 22.56 9.63 3.6 3.2 5.16 7.63 5.19 12.43 0 4.48-.25 9-.45 13.44-.09 2-.34 3.83 1.25 5.58.78.86.81 2.56.85 3.89.14 4-1.32 7.58-2.71 11.17s-3.07 6.75-3.64 10.54a10.75 10.75 0 01-4.29 6.83c-1.31 1-1.08 1.86-.66 3.16a17.21 17.21 0 008.55 10.32c6.89 3.75 13.5 8 20.2 12.09a28.43 28.43 0 0010 4c12.08 2 20.14 9.22 25.57 19.77 4.05 7.88 5.77 16.41 6.68 25.13a44.61 44.61 0 01.52 7.83c-.48 6.87 1.28 13.22 3.35 19.68a124.06 124.06 0 015.64 47.95 8.65 8.65 0 00.54 3.6 124.3 124.3 0 017.66 50.63 66.55 66.55 0 00.43 8.58c.6 7.57 1.4 15.14 1.83 22.72.17 2.95-.58 5.93-.66 8.9-.16 5.6-.19 11.2-.17 16.8 0 2.37.35 4.73.41 7.09a27 27 0 01-5 16.92 124.65 124.65 0 01-10.8 13.34c-2.34 2.43-5.68 3.94-8.65 5.72-.63.38-1.65.13-2.48.16.09-.92-.11-2 .33-2.72a18.86 18.86 0 013.49-4.32 19.18 19.18 0 005.93-8.89c1.37-4.26 2.72-8.53 3.89-12.85a6.53 6.53 0 00-.24-3.61 1.62 1.62 0 00-2-1 1.63 1.63 0 00-.92.79c-.62.92-.92 2-1.45 3-1.47 2.74-2.9 5.5-4.54 8.14a3.21 3.21 0 01-2.42 1.31c-1.37-.11-1.59-1.55-1.48-2.64.33-3.21.84-6.4 1.26-9.6q.69-4 1-8.11a49.8 49.8 0 013.06-16.83 16.08 16.08 0 00-.08-11.91c-6.57-18.16-12.23-36.6-15.92-55.59a91.28 91.28 0 01-2-21.17 10.58 10.58 0 01.21-3c1.25-3.45.08-6.57-1-9.76-2.74-8-5.42-16-8.12-24.06-.27-.82-.57-1.63-.85-2.45z" fill="none" stroke="#707070" stroke-miterlimit="10"/></g><g data-name="Group 164"><path data-name="Path 9" d="M110.84 250.82c11.08-.39 57.49 21.95 60.36 11.76s.83-31.36 2.06-35.28 0-52.6-4.11-56.52c-26.28-37.62-25.57-34-19.41-46.17s15.71-10.58 10.79-17.24c-3.55-4.8-12.22-9-16.79-11a5.8 5.8 0 00-6.6 1.35 23.87 23.87 0 00-3.72 6.08c-3.7 8.23-13.14 7-22.59 23.51h-1.23c-9.45-16.46-18.89-15.28-22.59-23.51a23.87 23.87 0 00-3.72-6.08 5.78 5.78 0 00-6.6-1.35c-4.57 2-13.24 6.15-16.79 11-4.92 6.66 4.63 5.1 10.79 17.24s6.87 8.55-19.41 46.17c-4.11 3.92-5.34 52.6-4.11 56.52s-.82 25.09 2.06 35.28 49.28-12.15 60.36-11.76z" fill="#707070"/><g data-name="Path 10"><path d="M165.63 262.88c-6.74 0-19.4-4.24-30.57-8-10.29-3.45-19.18-6.43-23.88-6.43h-1.83c-4.7 0-13.6 3-23.89 6.43-11.17 3.75-23.82 8-30.57 8-1.49 0-3.15-.25-3.35-.95C49.9 256.1 50 245.82 50 238.31c0-6.45 0-9.9-.54-11.72-1.28-4.81.43-50 3.55-54.16l.17-.17.07-.13c2.9-4.15 5.47-7.8 7.74-11 17.36-24.65 18-25.61 12.77-35.77l-.93-1.8a30 30 0 00-9.57-11c-.89-.68-2.24-1.7-2.32-2.08 0 0 0-.44.9-1.71 2.33-3.15 8.1-6.87 15.82-10.2a3.71 3.71 0 011.44-.3 3.24 3.24 0 012.46 1 21.49 21.49 0 013.33 5.48c1.87 4.15 5 6.28 8.33 8.53a41.23 41.23 0 0114.37 15.19 2.37 2.37 0 002 1.19h1.24a2.37 2.37 0 002-1.19 41.28 41.28 0 0114.36-15.19c3.33-2.25 6.47-4.38 8.33-8.53a21.81 21.81 0 013.48-5.43 3.24 3.24 0 012.46-1 3.61 3.61 0 011.44.3c7.72 3.33 13.49 7 15.82 10.2.94 1.27.9 1.7.9 1.71-.08.38-1.43 1.4-2.32 2.08a29.91 29.91 0 00-9.57 11l-.93 1.8c-5.27 10.16-4.6 11.12 12.77 35.77 2.27 3.22 4.84 6.86 7.74 11l.13.2.17.16c.76 1 2.4 7.95 3.35 27 .71 14.18.55 25.51.13 27.07-.56 1.8-.57 5.25-.53 11.7.05 7.5.11 17.79-1.54 23.63-.24.7-1.9.94-3.39.94z" fill="none"/><path d="M165.63 261.88a5.87 5.87 0 002.42-.35c1.57-5.73 1.51-15.83 1.46-23.22 0-6.7 0-10 .57-12 .33-1.33.57-11.89-.17-26.75-.41-8.24-1-15.2-1.72-20.13s-1.28-6.09-1.4-6.33l-.08-.08-.08-.07-.06-.08-.13-.19c-2.83-4.05-5.35-7.63-7.57-10.79l-.17-.23c-8.83-12.54-13.26-18.83-15-23.55a11.35 11.35 0 01-.61-6.59 27.67 27.67 0 012.77-6.66l.92-1.8a30.94 30.94 0 019.86-11.33c.41-.31 1.37-1 1.81-1.46a5.87 5.87 0 00-.59-.93 22.07 22.07 0 00-5.63-4.78 66.93 66.93 0 00-9.79-5.09 2.61 2.61 0 00-1-.21 2.27 2.27 0 00-1.71.71 20.27 20.27 0 00-3.17 5.22 16.31 16.31 0 01-3.85 5.3 39 39 0 01-4.83 3.66A40.3 40.3 0 00113.79 129a3.35 3.35 0 01-2.91 1.69h-1.24a3.36 3.36 0 01-2.91-1.68 40.27 40.27 0 00-14.06-14.86 39 39 0 01-4.83-3.66 16.16 16.16 0 01-3.85-5.3 20.55 20.55 0 00-3.17-5.19 2.27 2.27 0 00-1.71-.71 2.61 2.61 0 00-1 .21 67.92 67.92 0 00-9.79 5.09 21.9 21.9 0 00-5.63 4.78 5.87 5.87 0 00-.59.93 21.6 21.6 0 001.8 1.45 30.94 30.94 0 019.86 11.33c.3.6.59 1.15.86 1.68l.06.12a27.21 27.21 0 012.76 6.66 11.27 11.27 0 01-.6 6.59c-1.73 4.72-6.16 11-15 23.55l-.34.47q-3.25 4.62-7.38 10.51l-.05.09-.07.13-.1.09-.1.1c-.31.47-1 2.25-1.82 9-.54 4.57-1 10.53-1.37 17.23-.32 6.11-.52 12.28-.55 17.38 0 7.14.26 9.11.39 9.63.61 2 .62 5.29.58 12 0 7.38-.11 17.47 1.46 23.19a5.87 5.87 0 002.42.35c6.58 0 19.15-4.21 30.25-7.94 10.37-3.48 19.33-6.48 24.19-6.48h1.83c4.86 0 13.81 3 24.18 6.47 11.09 3.73 23.67 7.94 30.25 7.94m0 1c-6.74 0-19.4-4.24-30.57-8-10.3-3.45-19.19-6.43-23.89-6.43h-1.83c-4.7 0-13.59 3-23.89 6.43-11.16 3.75-23.82 8-30.56 8-1.49 0-3.15-.24-3.35-.94-1.62-5.8-1.52-16.08-1.52-23.59 0-6.45 0-9.9-.54-11.72-1.28-4.81.43-50 3.55-54.17l.17-.16.07-.13c2.9-4.15 5.47-7.79 7.74-11 17.36-24.64 18-25.6 12.77-35.76l-.93-1.8a30 30 0 00-9.57-11c-.89-.67-2.24-1.7-2.32-2.08 0 0 0-.44.9-1.7 2.33-3.15 8.1-6.87 15.82-10.2a3.74 3.74 0 011.44-.29 3.29 3.29 0 012.46 1 22.16 22.16 0 013.34 5.48c1.86 4.15 5 6.28 8.32 8.54a41.17 41.17 0 0114.37 15.19 2.36 2.36 0 002 1.18h1.24a2.36 2.36 0 002-1.18 41.09 41.09 0 0114.37-15.19c3.32-2.26 6.46-4.39 8.32-8.54a21.86 21.86 0 013.48-5.46 3.29 3.29 0 012.46-1 3.74 3.74 0 011.44.29c7.72 3.33 13.49 7.05 15.82 10.2.94 1.26.9 1.7.9 1.7-.08.38-1.42 1.41-2.32 2.08a30 30 0 00-9.57 11c-.33.64-.63 1.24-.93 1.8-5.27 10.16-4.59 11.12 12.77 35.76 2.27 3.23 4.84 6.87 7.74 11l.13.2.17.16c.76 1 2.4 7.95 3.35 27 .71 14.18.55 25.51.13 27.07-.56 1.8-.57 5.25-.53 11.7.05 7.5.11 17.79-1.53 23.63-.25.73-1.91.97-3.4.97z" fill="#fffefd"/></g><rect data-name="Rectangle 82" x="94.54" y="156.36" width="31.36" height="10.58" rx=".92" fill="none" stroke="#fff" stroke-miterlimit="10"/><rect data-name="Rectangle 83" x="94.54" y="186.15" width="31.36" height="10.58" rx=".92" fill="none" stroke="#fff" stroke-miterlimit="10"/><rect data-name="Rectangle 84" x="94.54" y="215.94" width="31.36" height="10.58" rx=".92" fill="none" stroke="#fff" stroke-miterlimit="10"/><g data-name="Group 163" fill="#fff"><path data-name="Rectangle 85" d="M109.57 130.31h1.31v25.71h-1.31z"/><path data-name="Path 11" d="M110.87 186.36V167h-1.3v19.25a6.3 6.3 0 011.3.11z"/><path data-name="Path 12" d="M110.87 216.22v-19.66l-.1.05a1.84 1.84 0 01-1.16 0v19.62a.9.9 0 011.28 0z"/><path data-name="Path 13" d="M110.45 226.86a.91.91 0 01-.88-.27v21.22h1.3v-21.25a.75.75 0 01-.42.3z"/></g></g><g data-name="Group 167"><g data-name="Group 165"><path data-name="Path 14" d="M112 0h-5.24a35.09 35.09 0 00-35.12 35.08v19.71a12.19 12.19 0 009.81 11.95A61.45 61.45 0 0179.17 60c-.84-3.21-1.44-6.6 1.21-9.58.58-.67.4-2.11.37-3.19 0-1.32-.09-2.63-.14-3.94 6.92-3.62 17.21-5.93 28.73-5.93s22 2.34 28.91 6c0 1-.09 1.93-.13 2.89-.09 2-.35 3.83 1.24 5.58.78.86.81 2.56.86 3.89.13 3.84-1.25 7.37-2.6 10.86A12.18 12.18 0 00147 54.79V35.08A35.09 35.09 0 00112 0z" fill="#707070"/><g data-name="Path 15"><path d="M77.31 62.14A9.88 9.88 0 0174 54.79V35.08a32.76 32.76 0 0132.72-32.72H112a32.76 32.76 0 0132.72 32.72v19.71a9.77 9.77 0 01-2.87 7 20.24 20.24 0 00.76-6v-.16c-.06-1.59-.13-3.77-1.46-5.23-.76-.84-.75-1.64-.66-3.36l.23-4.91-1.32-.7c-7.53-4-18.47-6.3-30-6.3S87 37.3 79.51 41.24l-1.32.69.06 1.5c.06 1.3.11 2.61.15 3.9v.58a9.61 9.61 0 010 1.2C75 53.25 76.21 58 76.89 60.64c.11.5.27 1 .42 1.5z" fill="none"/><path d="M75.1 56.14v-.71a10.82 10.82 0 012.34-6.7v-1.32c0-1.31-.09-2.64-.14-3.88L77.19 42v-.64l.56-.29 1.33-.7c7.66-4 18.7-6.31 30.29-6.31s22.81 2.34 30.49 6.42l1.32.7.56.29v.64l-.3 4.89c-.09 1.67-.06 2.11.41 2.62 1.58 1.74 1.66 4.23 1.71 5.88v.61a8.42 8.42 0 00.1-1.33v-19.7A31.76 31.76 0 00112 3.36h-5.24A31.76 31.76 0 0075 35.08v19.71a10.1 10.1 0 00.1 1.35m2.21 6A9.85 9.85 0 0174 54.79V35.08a32.76 32.76 0 0132.72-32.72H112a32.76 32.76 0 0132.72 32.72v19.71a9.81 9.81 0 01-2.87 7 20.07 20.07 0 00.76-6v-.16c-.06-1.59-.13-3.77-1.46-5.23-.76-.84-.76-1.64-.66-3.36l.23-4.91-1.32-.7c-7.54-4-18.48-6.3-30-6.3S87 37.3 79.51 41.24l-1.32.69.06 1.5c.06 1.3.11 2.6.14 3.9v1.78C75 53.24 76.21 58 76.88 60.63c.12.51.28 1.01.43 1.51z" fill="#fffefd"/></g></g><g data-name="Group 166" fill="none" stroke="#fffefd" stroke-miterlimit="10.002"><ellipse data-name="Ellipse 14" cx="90.59" cy="26.17" rx="6.66" ry="2.68" transform="rotate(-13.88 90.609 26.161)"/><ellipse data-name="Ellipse 15" cx="128.09" cy="26.17" rx="2.68" ry="6.66" transform="rotate(-76.12 128.085 26.173)"/></g></g><g data-name="Group 209"><g data-name="Group 168"><path data-name="Path 16" d="M102.52 622.22c1.52-5.74 2.09-11.8 0-15.94s2.75-6.56.46-11.79c-1.07-2.44-2-2.75-4.09-2.37-1.39 2.76-5.67 5.06-11 6.2-7.3 1.57-10-.75-11.76-3.52-1.22.67-3.53 2.05-3.64 3.51 0 0-7.21 5.58-7.78 14.19s-12.9 14.34-15.37 24.22S46 653 59.64 656.32s41.94 1.44 43.83-14.66-2.47-13.66-.95-19.44z" fill="#707070"/><g data-name="Path 17"><path d="M72.57 655.36A53.63 53.63 0 0160.2 654c-4.83-1.18-7.78-2.77-9-4.86-1.61-2.66-.8-6.6.52-11.88 1-4.23 4.37-7.81 7.57-11.28 3.7-4 7.52-8.12 7.86-13.37.49-7.4 6.82-12.43 6.88-12.48l.82-.64s2.66 2.57 8.44 2.34c6.37-.25 15.09-2 16.89-7.53 0-.06.1 0 .12 0a8.61 8.61 0 01.56 1.09c.8 1.84.35 3-.28 4.73-.7 1.9-1.59 4.26-.12 7.17 1.55 3.07 1.49 8-.17 14.28a8.78 8.78 0 00.3 6.14c.66 1.84 1.65 4.62.58 13.63-1.21 10.31-16.14 14-28.56 14z" fill="none"/><path d="M72.57 654.36a49.71 49.71 0 0018.11-3.05 19 19 0 006.51-4.09 10 10 0 003-6c1-8.78.09-11.42-.53-13.17a9.74 9.74 0 01-.33-6.74 33.65 33.65 0 001.25-8.09 12 12 0 00-1-5.48c-1.67-3.3-.66-6 .08-8a5.25 5.25 0 00.55-3.26 12.64 12.64 0 01-6.46 4.52 36.9 36.9 0 01-10.46 1.85h-.76a13.65 13.65 0 01-7.72-2.09l-.2.16c-.06 0-6 4.85-6.5 11.76-.37 5.6-4.31 9.85-8.12 14-3.12 3.37-6.34 6.85-7.33 10.83-1.26 5-2 8.79-.64 11.12 1.1 1.83 3.93 3.31 8.42 4.41a53.31 53.31 0 0012.14 1.29m0 1A54 54 0 0160.2 654c-4.83-1.18-7.79-2.77-9.05-4.86-1.6-2.66-.79-6.6.53-11.88 1-4.23 4.37-7.81 7.57-11.28 3.69-4 7.52-8.12 7.86-13.37.49-7.4 6.81-12.43 6.88-12.48l.82-.64s2.44 2.36 7.72 2.36h.72c6.37-.25 15.09-2 16.88-7.53s.08 0 .09 0a9.21 9.21 0 01.56 1.09c.81 1.83.35 3-.28 4.73-.71 1.9-1.59 4.26-.12 7.17 1.55 3.07 1.48 8-.17 14.28a8.75 8.75 0 00.3 6.14c.66 1.84 1.65 4.61.58 13.63-1.17 10.34-16.09 14-28.52 14z" fill="#fffdfd"/></g><path data-name="Path 18" d="M87.64 616.8c-10 3.36-11.36-.89-12.89-.42a1.11 1.11 0 00-.58.42s-.61 1.1-1.72 2.85c-.61 1-1.6 2.46-2.64 3.82a48.79 48.79 0 01-4.94 5.42 1.12 1.12 0 00.26 1.56 1.14 1.14 0 00.86.19c2.28-.46-.14 7.9 4.84 8.17 3.78.67 5.35-7.47 15.26-7.16a1.12 1.12 0 001.55-.9s-2-7.42.67-12.78c1.07-2.22-.2-.97-.67-1.17z" fill="none" stroke="#fffdfd" stroke-miterlimit="10"/></g><g data-name="Group 208"><path data-name="Path 16-2" d="M118.35 622.22c-1.52-5.74-2.09-11.8 0-15.94s-2.74-6.56-.46-11.79c1.07-2.44 2-2.75 4.09-2.37 1.39 2.76 5.67 5.06 11 6.2 7.3 1.57 10.06-.75 11.76-3.52 1.22.67 3.53 2.05 3.64 3.51 0 0 7.21 5.58 7.78 14.19s12.9 14.34 15.37 24.22 3.42 16.26-10.24 19.6-41.94 1.44-43.84-14.66 2.42-13.66.9-19.44z" fill="#707070"/><g data-name="Path 17-2"><path d="M148.3 655.36a54.21 54.21 0 0012.38-1.36c4.82-1.18 7.78-2.77 9-4.86 1.6-2.66.8-6.61-.52-11.88-1.06-4.23-4.37-7.82-7.58-11.28-3.69-4-7.51-8.12-7.86-13.37-.49-7.4-6.81-12.43-6.88-12.48l-.81-.64s-2.67 2.57-8.45 2.34c-6.37-.25-15.09-2-16.88-7.53 0-.07-.11 0-.13 0a11 11 0 00-.56 1.08c-.8 1.84-.35 3.06.28 4.74.71 1.9 1.59 4.26.12 7.17-1.54 3.07-1.48 8 .18 14.28a8.78 8.78 0 01-.31 6.14c-.65 1.84-1.64 4.61-.58 13.63 1.21 10.31 16.14 14 28.56 14z" fill="none"/><path d="M148.3 654.36a53.18 53.18 0 0012.14-1.29c4.49-1.1 7.32-2.58 8.42-4.41 1.41-2.33.63-6.08-.63-11.12-1-4-4.22-7.46-7.33-10.83-3.81-4.12-7.75-8.37-8.12-14-.45-6.91-6.43-11.71-6.49-11.76l-.21-.16a13.59 13.59 0 01-7.72 2.09h-.76a35.39 35.39 0 01-10.48-1.88 12.57 12.57 0 01-6.4-4.46c-.27 1.08 0 1.92.55 3.26.73 2 1.74 4.67.08 8a11.88 11.88 0 00-1 5.48 34.16 34.16 0 001.25 8.09 9.68 9.68 0 01-.33 6.74c-.62 1.75-1.56 4.39-.53 13.17a10.09 10.09 0 003 6 19 19 0 006.52 4.09 49.61 49.61 0 0018.1 3.05m0 1c-12.41 0-27.34-3.66-28.56-14-1.06-9-.07-11.79.58-13.63a8.79 8.79 0 00.31-6.14c-1.66-6.27-1.72-11.21-.18-14.28 1.47-2.91.59-5.27-.12-7.17-.63-1.68-1.08-2.9-.28-4.73a12.07 12.07 0 01.56-1.09h.09c.03 0 0 0 0 0 1.79 5.51 10.51 7.28 16.88 7.53h.72c5.28 0 7.73-2.36 7.73-2.36l.81.64c.07.05 6.39 5.08 6.88 12.48.35 5.25 4.17 9.38 7.86 13.37 3.21 3.47 6.52 7.05 7.58 11.28 1.32 5.28 2.12 9.22.52 11.88-1.26 2.09-4.22 3.68-9 4.86a54.15 54.15 0 01-12.44 1.3z" fill="#fffdfd"/></g><path data-name="Path 18-2" d="M133.24 616.8c10 3.36 11.35-.89 12.88-.42a1.11 1.11 0 01.58.42s.62 1.1 1.72 2.85c.61 1 1.6 2.46 2.65 3.82a47.74 47.74 0 004.93 5.42 1.12 1.12 0 01-.25 1.56 1.14 1.14 0 01-.86.19c-2.29-.46.14 7.9-4.85 8.17-3.78.67-5.34-7.47-15.25-7.16a1.13 1.13 0 01-1.48-.6 1.09 1.09 0 01-.07-.3s2-7.42-.68-12.78c-1.07-2.22.21-.97.68-1.17z" fill="none" stroke="#fffdfd" stroke-miterlimit="10"/></g></g></g></g></svg>