<svg data-name="Layer 1" xmlns="http://www.w3.org/2000/svg" viewBox="0 0 498.1 390.61"><path d="M360.95 389.8c-3.76-3.27-2.21-6.78-1-11.33 5.84-22.46 12.19-44.83 16.87-67.54 6.65-32.33 6.05-64.39-8.38-95-5.31-11.29-12.21-21.38-22.62-28.57-3.58-2.47-7.71-4.16-12.64-6.77.88 6.14 1.62 10.85 2.23 15.58 5.83 45.49-12 80.63-47.62 107.75-7.62 5.81-16.09 10.5-24.26 15.55a17.36 17.36 0 01-6.8 2.52c-2.6.16-5.23-.07-6.85-1.56-1.35-1.24-1.44-5-.66-7.19 2.69-7.3 6-14.38 9.09-21.53 9.62-22.18 10.17-44.1-2.27-65.45-11.53-19.78-29.35-32.22-49.71-41.45-21.22-9.63-43.89-14.1-66.67-17.94-45.56-7.68-91.6-9.58-137.67-11a2 2 0 01-1.93-2.42 32.44 32.44 0 011.09-3.89c2.76-7.64 5.54-15.28 8.09-23 .94-2.84 2.47-3.67 5.42-3.74 56.24-1.22 112.43-1.35 168.35 6.07 25.66 3.41 50.78 8.58 73.61 21.6a29.06 29.06 0 005 2.15c3.87 1.34 5.21.47 5.1-3.41a18.87 18.87 0 00-.51-3.81c-3.86-16.93-10.9-32.4-22.14-45.67-7.28-8.68-15.44-16.56-22.77-25.15-2-2.38-3.84-6.5-3.12-9.1.51-1.8 3.52-3.19 8.49-3.46h.5c31.28-.08 61.5 5.27 90.34 17.65 36.35 15.6 65.46 40.23 89.24 71.51a64.07 64.07 0 007.61 8.5c1.28 1.18 3.46 1.39 5.23 2 .57-2 1.59-3.89 1.58-5.84a29.61 29.61 0 00-1.4-7.3c-11.81-43.53-36-78.71-71.65-106.22-15.72-12.14-32.81-22-50.54-30.85-1.63-.82-4.21-2.45-5.21-4.61a3.51 3.51 0 011-4.48c1.47-1.32 4.24-1.81 8-2.15a107.16 107.16 0 0126.47 1.45c49.72 10.37 93 32.79 126.2 71.88 29 34.17 44.66 73.88 44 119.23-.36 26.33-7.27 51.15-18.26 74.89-22.33 48.22-57 85.3-100.65 114.76-1.35.92-8.6 6.45-11.26 7.45a8.46 8.46 0 01-6.92-.11z"/></svg>